/* XPM */
static char *_c00021abda24d3da35980d87cdec090IySFY7RrDzDTv6wi[] = {
/* columns rows colors chars-per-pixel */
"55 55 123 2 ",
"   c #477D05",
".  c #497D0C",
"X  c #4B8206",
"o  c #4D840B",
"O  c #4F880E",
"+  c #518507",
"@  c #50860C",
"#  c #548B0E",
"$  c #598E0E",
"%  c #5B900F",
"&  c #4E8411",
"*  c #518613",
"=  c #558D13",
"-  c #598F12",
";  c #528719",
":  c #568C1A",
">  c #598E1A",
",  c #579014",
"<  c #5C9314",
"1  c #5F9816",
"2  c #579018",
"3  c #5D951A",
"4  c #5F981A",
"5  c #619615",
"6  c #639917",
"7  c #689A17",
"8  c #61961B",
"9  c #649B1A",
"0  c #699E1B",
"q  c #67A01E",
"w  c #68A01D",
"e  c #69A01D",
"r  c #68A11D",
"t  c #68A01C",
"y  c #6AA01D",
"u  c #6BA01D",
"i  c #69A11F",
"p  c #6BA11E",
"a  c #6BA01F",
"s  c #6DA21E",
"d  c #6CA21F",
"f  c #6FA21E",
"g  c #6EA31F",
"h  c #6BA41F",
"j  c #6DA41F",
"k  c #6AA11E",
"l  c #70A21F",
"z  c #70A31F",
"x  c #70A31F",
"c  c #5F9820",
"v  c #639921",
"b  c #659D21",
"n  c #679F20",
"m  c #659D21",
"M  c #699E21",
"N  c #689F21",
"B  c #689F26",
"V  c #689E21",
"C  c #69992B",
"Z  c #67A021",
"A  c #67A021",
"S  c #68A021",
"D  c #6BA320",
"F  c #6BA321",
"G  c #69A023",
"H  c #6AA123",
"J  c #6AA222",
"K  c #6CA121",
"L  c #6EA323",
"P  c #6CA420",
"I  c #6DA420",
"U  c #6DA521",
"Y  c #6EA521",
"T  c #6FA521",
"R  c #6FA621",
"E  c #6CA422",
"W  c #6DA522",
"Q  c #6EA622",
"!  c #6FA723",
"~  c #6BA226",
"^  c #6EA527",
"/  c #6DA523",
"(  c #6FA823",
")  c #6FA823",
"_  c #6AA229",
"`  c #6DA42B",
"'  c #6DA42B",
"]  c #6FA82E",
"[  c #72A521",
"{  c #73A523",
"}  c #70A722",
"|  c #73A623",
" . c #74A621",
".. c #74A722",
"X. c #75A722",
"o. c #72A724",
"O. c #72A726",
"+. c #72A722",
"@. c #72AA25",
"#. c #73A826",
"$. c #74A926",
"%. c #75AB26",
"&. c #76AA26",
"*. c #76AC27",
"=. c #73AA25",
"-. c #78AC27",
";. c #78AC27",
":. c #72AA2A",
">. c #74AB2B",
",. c #76AC28",
"<. c #74AB2C",
"1. c #75AB2B",
"2. c #7AAE29",
"3. c #7BAE29",
"4. c #7BB02B",
"5. c #7CB12C",
"6. c #7CB12C",
"7. c #77AF30",
"8. c #7FAF3F",
"9. c #7AB433",
"0. c #80B32E",
"q. c #80B836",
"w. c #90BC56",
/* pixels */
"J $ t < 9 2 5 # , , < x = x # 0 7 ;.$ $ t < t o X 5 6 u - $ 9 R %.1 C 3 - & * 5 5 % % 9 # } } 5 < 9 < R 9 3 w.",
"q j @ 2 , 2 < 5 % 5 7 7 %.< 0 0 6 % 5 % f % < # 1 % t , 9 2 5 # , , < l = l $ 0 7 ;.$ % t 2 t @ X 9 5 3 * = X.",
"< # 9 t 2 O q q 5 5 5 5 % $ , 8 6 t x % 5 < = # 9 R O 2 , 2 1 1 % 5 7 7 %.< 0 0 5 % 5 % [ $ < @ X 8 9 3 5 1 l ",
"O # < 1 2 6 9 # 5 5 0 5 5 5 % = ,.= t 5 9 8 > # < # 9 t 2 O q 9 5 5 5 5 % $ 2 8 6 t j % 5 < = O : - @.8 9 < 0 ",
"$ t # 1 < % # # o X $ % < t < k , < 9 5 9 $ 5 % O # 1 5 2 5 9 # 6 5 0 5 5 5 % = ,.= t 5 6 9 = 1 - & - 9 5 k < ",
"6 j 9 @ % % < $ # % j % 6 < = ( 6 % 9 k % < < = # q # 5 1 $ # # @ X $ % < t < t - 1 9 5 6 # < , 9 8 o k t %.< ",
"o t s 5 x 5 $ < $ # % 8 6 < = 5 = 6 6 k % - R = 9 j 9 @ $ $ 1 $ # % x % 6 < = @.5 < 0 k % < 3 ^ o < # @.k k @.",
"< 5 5 t 9 =.@.h = j 9 5 = 9 < 8 t t 5 1 1 0 5 0 o t 0 5 l 5 $ < # # % 6 6 < = 6 = 5 5 k % < j # < 3 @.9 = = # ",
"# 5 t < < $ 5 5 5 = o 5 = < R 1 # 9 k 5 1 j ( $ < 5 5 k 9 %.@.j , j 5 1 = 8 , 6 h t 1 1 < % O 2 8 = = 2 < = o ",
"# $ 0 k 9 , < 5 < 4 * 1 * # < k 1 9 2 1 9 # j @.# 5 t < < # 5 5 5 = # 5 2 1 R 1 # 9 q 5 < % , q < # t O q %.( ",
"6 x x 6 8 9 0 < j Z , H - < 1 # 9 r < k < # + 5 # % 0 j 9 , 5 5 , 3 & < * # < 0 1 9 2 1 k < < n ( < < # < , 4 ",
"5 j 6.;.R , # = 8 k = J < # < ;.t t 6 6 6 9 t t 5 x x 5 5 9 t < j J 2 H - , 1 # 9 t < q < < h 5 k 5 9 1 < 5 3 ",
"< 5 %.;.< 9 # # 1 2 = = 9 t < , x t X j 5 t < = 5 j 6.;.R , # = 8 h = J < # < %.t t 6 6 5 5 9 = 1 9 5 h < 8 * ",
"= 6 2 # k X 6 8 # =   8 = 5 $ 5 5 j % # 2 k t 8 # 5 %.;.1 8 # # < < = = 9 t < < f t X j 1 t % = q o t 6 9 5 r ",
"n 8 - k %.< @ @ = 5 1 o 5 R k 5 9 t 6 h 0 0 q # 8 5 < # t X 6 8 # =   8 = 5 $ 5 5 j % # 1 k q < O 9 @.5 ) 5 < ",
"1 q.H : M : = 9 = = # 1 1 - 9 - < h 5 h j 6 $ $ 1 1 - k %.< @ @ , 1 5 o 6 j h 5 9 r 6 t 9 t q # o o 9 =.t 9 %.",
"9 :.~ > v 8 - 0 9 = @.9 3 = < 5 9 j k 9 9 6 6 < 1 9 7 0 6 5 } < 9 @ 5 5 1 $ 9 $ 5 k 5 j j 7 % % 1 5 9 5 5 < k ",
"8 9._ 3 3 3 6 # ( 2 5 9 1 1 B < < # $ % 5 9 < k 9 6 6 , 0 0 u 0 * @ o @.1 # < 5 9 k k 9 9 5 6 < 1 9 5 5 j 0 # ",
"= 9.8 3 3 k < 9 < 8 5 1 1 5 5 9 < s < < L 0 < 5 % - o # 7 } @.0 > 8 @ 5 k = ` 1 < # $ $ 5 9 < 9 9 9 0 0 k 5 $ ",
"O ,.} 5 %.,.5 %.< @.9 1 5 < 5 @.@ 9 5 # 9 5 @ $ l u 8 9 < # # ^ = @.< 8 9 5 6 9 < k < < j 0 < 5 $ , 5 9 5 @.@.",
"1 <.#.1.< 9 % < , @.2 % 2 t # t < 0 < 5 t X 1 l 7 8 ; 9 5 = < H 3 3 + = l - O.%.@ 0 5 # 9 6 # $ l s x 5 # k t ",
"# <.8 5 2 %.$ 9 9 @.6 1 # # q t x 0 @.5 0 6 L [ $ 1 # < j t 9 & 3 3 + = k 7 l 0 < 0 < 2 < @.;.6 ;.0 0 5 5 5 x ",
"R :.L 8 @.5 %.@.% 1 q % 1 O # = $ 7 < 6 6 < - 0 $ 6 # % 9 = & * * k @ X.u =.X.u X.0 u 2 < t t x 6.x 7 6 5 s % ",
"4 3 R 9 4 8 = 9 9 9 , # o O 1 q j l q.J 3 9 > = 9 = 1 7 @ 9 : 8 : * # ;.0 6 ;.0 $ 0 < 5 = 9 t 9 6 9 0 * % 5 9 ",
"k q @.t < j # } R 1 1 5 , 5 q 1 u 0 u =.% < 2 1 0 9 2 } = = > : n : & 6.6 9 < 0 9 t k 5 5 k = 5 j 5 : * 5 t k ",
"1 q 1 0 =.$ % , R 8 O n 9 8 = = 9 < t < 9 2 1 $ = 0 = 1 L 6 3 1.> : 1 8 5 %.2 @.9 6 9 < % % 4 = 1 5 : : 5 U , ",
"= q $ k < 9 2 5 # 3 n * 9 8 2 % k j o 2 , 2 , 5 $ 5 9 5 4 * = l R @.O U % 1 - @.2 , < q # h 1 q 1 , 1 < 1 k - ",
"$ q j o 2 , 2 < 5 , - k 9 & 2 = < # 9 k = # q k 5 5 9 9 1 5 5 u 1 t < t # 0 9 R t 5 # # q q 1 O r % = 9 8 < 0 ",
"# < # 6 t 2 O q k 1 5 5 < # 5 % O # < 1 2 6 9 # 6 5 9 1 , 2 t < 9 t < 5 @.@.$ 1 t % 1 O # o O ( q 5 6 9 k q k ",
"% O # < 5 2 6 9 # 6 5 9 J 6 < = # t # 1 < % # # @ X $ 5 5 # # t t < X 5 : 9 9 0 = # o O 1 t q @.k < j # %.# # ",
"= # t $ 1 < % # # @ X $ 5 = ( = 9 j 9 @ $ $ < $ # % j < % 1 O # o , 8 ^ = R ( 1 < 5 < 1 q 1 t 1 t =.% % = k t ",
", 6 j 9 o % % < $ # % l 6 t 5 7 o t s 5 l 5 $ < # # % 5 $ o O 1 h 3 8 2 - J U 8 O n 9 4 = = t $ 0 < 9 2 1 # = ",
"9 X t k 5 x 5 % < # # % 5 R R $ < 5 5 u 9 %.@.j = j 5 1 1 2 5 q 9 9 1 0 x % < < h = 0 4 2 $ q j # 2 % 2 , 1 % ",
"% < 5 5 u 9 %.%.j = R 5 1 # R @.# 6 0 < < # 5 5 1 = @ 1 J 9 4 = = q $ k < 9 2 5 # 2 8 @ 2 # 2 # 9 r 2 O q q 1 ",
"@.# 6 0 < < # 5 5 1 = O 1 # o 5 # $ 7 u 9 % 5 5 < 3 * 9 * 9 8 2 $ k j O 2 , 2 < 1 % 5 , 5 % # # < 1 2 5 9 # 5 ",
"5 # % 7 u 9 , 5 5 < 1 & 1 1 k 0 9 x x 6 8 9 t < j J , : Z 9 O 2 # , # 9 t 2 O q q 1 5 5 < = # t # 5 < % $ # O ",
"0 5 j x 5 8 9 t < j Z 2 0 3 6 = 5 j 6.;.R , # , 8 k 4 < 4 < # 9 % O # < 5 2 5 9 # 5 5 9 t - 9 j 9 @ $ $ < $ # ",
", 5 j 6.2.) # # = 8 k = H = 3 8 # 5 %.3.< 9 # # < < 1 * 9 H 5 < = # t # 5 < % # # # X % < 6 o t s 5 x 5 $ < # ",
"8 # 5 %.2.2 9 $ # < < = 8 8 3 n ` 5 , # t X 9 8 # 2 O 4 9 8 , ( = 6 j 9 # % $ < $ # % x 5 % < 5 5 t 9 %.@.j = ",
"n ' 5 < # k X 6 8 # =   3 R > 8 2 < , k %.< # # < = 1 9 , u 9 5 0 < % u < x 5 $ < # # % 5 j $ 6 0 < < # 5 5 1 ",
"9 2 < , t =., # # = 1 1 * q o 8 = u 9 u k 0 7 t # o o 9 X.t 9 %.t < t 5 k 9 %.@.j = k 5 1 < # $ t u 9 , 5 5 < ",
"5 = } 6 @.9 t < = 5 k k 5 5 , 9 $ 5 k 6 j j 6 % % 5 5 9 5 5 < k t @.% t < < # 5 5 1 = # 9 9 6 x x 5 8 9 t < j ",
"@.$ 7 =.6 9 9 t 5 k 9 5 ( 1 # < 5 9 u 0 9 9 5 9 < 1 9 5 5 u t # # # t 7 u 9 , 5 5 , 3 * 5 = 5 j 6.;.j , $ = 8 ",
"5 * < } 9 @ < < 2 8 9 5 5 k = ` < 1 # $ % 5 9 < q 9 9 7 0 u < % # @.X x 6 8 9 0 < j k - 8 8 # 5 %.2.< 9 # # < ",
",.5 0 - & , < * : : 6 5 5 9 6 6 9 < k < 1 j 0 , 1 $ , 5 9 5 %.@.6 @ X 6.%.R , # = 8 k 3 4 Z ' 5 < $ t X 9 8 # ",
"@.@.< 9 * 5 9 8 : 2 # 8 = x , @.=.@ 0 5 # 9 5 # $ j 0 } 5 = k t 9 2 9 %.4.< 9 # = 1 2 R : 8 2 < , h @.< # o 2 ",
"< < } 9 ^ 9 1 b 3 3 n 5 - l 7 l 0 < 0 , 5 k X 5 l 7 x 0 5 5 # 5 9 9 % < # k X 8 8 5 3 n . 1 = ( 9 x 9 t , = 5 ",
"< 9 < @.9 @.<.,.3 9 @ ^ %.x x =.s X.0 @.5 9 5 [ l $ 5 ;.9 9 1 9 < 6 # < R k 2 : & 3 8 8 X %.$ 6 @.9 9 5 s 6 0 ",
"8 J k O 4 9 1 U # 1 4 , 4 t 0 3.x $ 7 % 0 7 $ $ 0 $ f $ 0 7 5 6 8 L # , , 3 < 2 & < = 3 3 5 * < L 9 # , < : 8 ",
"8 3 4 = q # 4 2 q t t ( t 1 0 9 X.u 0 l f $ u 6 0 0.0.$ 0 5 < 5 9 9 X 9 6 6 * j 9 * 3 M ^ ,.5 0 - & , < * - > ",
"4 2 Z 4 9 q % ( % O t =.t % x 5 l 0.0 0 6 6 0 0 5 s $ 5 , $ < @ 8 6 $ 1 q 9 5 9 5 O R 3 , @.@.< 9 * 9 9 8 : : ",
"R Z 8 2 ( R q ( 4 5 5 j % k ( s x - x x 6 ;.$ 0 l X.$ =.$ 5 % s * 8 5 8 8 t 5 8 = 4 3 b R < < } 5 R 9 5 n 3 3 ",
"1 2 = 4 1 9 = 8 0 # 2 % 5 ;.< 6 } X.} $ 6 0 6 7 5 9 9 6 R 5 @ 6 = , # 1 3 = 3 ~ b ^ ; ^ = < 9 , @.9 @.<.:.3 9 ",
"Z U U 1 1 2 9 # < 5 8 9 u 9 0 7 0 X.;.< 0 9 7 - 2 %.$ , 5 0 @ = @.5 + 2 1 b c ~ _ ; c 2 ( 8 J t O 4 9 1 ^ # 1 ",
"q 1 Z 2 ( 9 < 9 , $ 5 , k 1 k , 0 0 5 6 - 0 7 < = } # k 0 j 9 L n & X 9 * Z c 2 n 3 9 2 4 4 4 4 = Z # 4 2 q 8."
};
