/* XPM */
static char *_9168_5db60de076a89908169bfa6bc3590ff1424ce7ffd803d62ebf43cde5cc2434d8_0[] = {
/* columns rows colors chars-per-pixel */
"55 55 121 2 ",
"   c #181425",
".  c #1B1924",
"X  c #202521",
"o  c #314022",
"O  c #477D05",
"+  c #487E06",
"@  c #497D0C",
"#  c #68386C",
"$  c #1B567F",
"%  c #664064",
"&  c #9E2835",
"*  c #963531",
"=  c #F6757A",
"-  c #4B8206",
";  c #4D840B",
":  c #4F880E",
">  c #518507",
",  c #50860C",
"<  c #548B0E",
"1  c #598E0E",
"2  c #5B900F",
"3  c #4E8411",
"4  c #518613",
"5  c #558D13",
"6  c #598F12",
"7  c #528719",
"8  c #568C1A",
"9  c #5A8E1A",
"0  c #579017",
"q  c #5C9314",
"w  c #5F9816",
"e  c #579018",
"r  c #5D941A",
"t  c #5F981A",
"y  c #619615",
"u  c #639917",
"i  c #689A17",
"p  c #61961A",
"a  c #649B1B",
"s  c #699E1C",
"d  c #67A01E",
"f  c #6AA11D",
"g  c #70A31F",
"h  c #5C8F20",
"j  c #5E9420",
"k  c #629523",
"l  c #659B22",
"z  c #6A9D23",
"x  c #67952F",
"c  c #68972D",
"v  c #66992B",
"b  c #6B9C2B",
"n  c #709F28",
"m  c #6D9D32",
"M  c #709E36",
"N  c #67A021",
"B  c #6DA423",
"V  c #6FA823",
"C  c #6DA22A",
"Z  c #72A623",
"A  c #74AA26",
"S  c #78AC27",
"D  c #72A42C",
"F  c #75AB2A",
"G  c #7AAD2B",
"H  c #7CB12C",
"J  c #73A432",
"K  c #76AC31",
"L  c #79AB33",
"P  c #75A33A",
"I  c #7AA73C",
"U  c #7CAB3B",
"Y  c #7CB433",
"T  c #7EB138",
"R  c #79A541",
"E  c #7FAC42",
"W  c #7AA449",
"Q  c #7EA84D",
"!  c #63C74D",
"~  c #80AC3A",
"^  c #81B235",
"/  c #82B13B",
"(  c #82AE44",
")  c #82AC4B",
"_  c #84B144",
"`  c #87B34B",
"'  c #89B44C",
"]  c #85AF53",
"[  c #87B051",
"{  c #8AB255",
"}  c #8FB953",
"|  c #8DB45A",
" . c #93BD56",
".. c #94B75C",
"X. c #92B95C",
"o. c #90B464",
"O. c #97BC65",
"+. c #99BE64",
"@. c #93B769",
"#. c #96B96E",
"$. c #98BC6A",
"%. c #9EBF70",
"&. c #A1BF77",
"*. c #9DC06B",
"=. c #A2C472",
"-. c #A3C27A",
";. c #FEE761",
":. c #124E89",
">. c #0095E9",
",. c #2CE8F5",
"<. c #A3BF81",
"1. c #ABC981",
"2. c #AECA8A",
"3. c #B3CE8E",
"4. c #B5D08E",
"5. c #B8D48F",
"6. c #B6CD9A",
"7. c #B7D092",
"8. c #C1D6A6",
"9. c #C6DAAC",
"0. c white",
/* pixels */
"C q ; 8 p w q ; Z A < y f q q < y y w 5 ; i e w B a p p t 0 a s a q < - : w d d A d q f < A < < f 2 < 4 9 ; a ",
"q V 3 r ; 5 q < , y < 1 i f a 6 y y q r 4 q 3 < q f w r C 5 V V w q w q w d t d w i A 2 1 0 d d g < r 2 ; 7 i ",
"a l r l d V a y f a i g g y u a d q f N q N q q q < a u e 6 N V t : N a t 5 5 d 1 d q i 0 w < 0 q q f 5 g < a ",
"5 A p 8 r V a w y q y g A f y a q < q y 5 a q < q S a t B t p 8 l C 3 d t e 1 d f : 0 q 0 2 w 2 w i i A q a f ",
"A a r r y q a 7 A , 1 2 i i s 1 < f - 1 < 2 u w 6 q s V u F ; 3 r 4 N a 3 e < q < i d 0 : d d w y y y 2 2 q y ",
"u u a u s z 4 6 r @ 1 1 s y q s < < 1 i u i , a 8 y q < u a y r B q t q < y 2 : < q w 0 u i < u y f y q y 2 5 ",
"a f 2 < s 6 < 4 e ; a 2 f i 1 1 2 a f f u V 5 5 8 9 l C 5 q w w w 4 u B u q 5 < f < w q 2 < < : - 1 2 q d q f ",
"A w d f Z < r 6 : 4 y y 2 1 a < V f y q u w N d r F e e a y V r : r d y 5 V 5 i f d > 1 1 q 1 < 2 g 2 i q 5 V ",
"N w < 5 q q f 5 g < s i s y q p 6 N 4 - a y r 4 5 Z V A ; 4 A 5 w r < s f i i ; f f y g y 2 q < < 2 y u q 8 y ",
"6 q w q y i i S q z a q l l a b h p 8 k C a r i w A y s q w V u q 4 ; u Z V 1 q y y f a S A f 5 f i w q a q y ",
"w d a y i a s D Z s J o.-.I C b k C a q u R b a q F f s q w q ; 8 r w q ; V A < y f q q < q y w 5 ; y t u a u ",
"a a < f G Z i a ^ _ :.:.:.:.[ d s ..[ ( a S s k w 8 Z N - w B 3 r ; < q < > y < 2 i f u q w y w r 3 q q w w q ",
"w < 1 y u a d 4 B ` :.! 0.0.:.) 9 9 a L b s B p z a u y w a l r l N V i w f s y g g i u u d q N N q w w y q r ",
"6 q < y V u 8 3 q [ :.0.0.0.;.:.6.l r [ r y y Z m F B p V w F a 8 r V a w u 5 w f H S V q < 5 u f 0 u f w f N ",
"y 1 q 5 w w 8 8 q ` :.0.0.0.;.;.:.o.l L D w K N D K Z r p u 8 u u a q N 5 r a < w S S q u 5 < q q w 6 < 5 p d ",
"A A f d w q w q i B -.:.,.,.0.;.;.  6.a B e C $.r C l t r B 0 B V r q p w r a C w q < d - y u < 5 : y < < q q ",
"< y w < f < q a a w s +.:.,.,.0.;.;.  | q m 5 z $.L V r u e q N V a ; N a t 5 5 u q d A q : , 5 w u - y a < 5 ",
"2 w q N d w w d f e p C 9.$ ,.,.0.;.;.  ) @ l 9 a C V r r C t u 8 l C 3 a t q < l f w u d q q w y s w ; , 5 y ",
"u d q A d q f < S 9 p r @.2.  ,.,.0.;.;.:.# <.D _ E =.U A u F - ; r 4 N a 3 e < q < a s 0 : d d w y y w 5 u N ",
"q < q y i A 2 1 5 f b e b b 7.. ,.,.0.;.;.= # ] p l a 5 F E b u r C q y w < u q : < q w 0 u i < y y s a u s i ",
"u < < q d q i 0 w < 5 u a m p n   ,.,.0.;.;.;.# b D p b l I C a C z 8 a C u q 5 < d < y q 2 < < < - 1 q 8 u a ",
"- y a u : e q 0 q w 6 B v n p p } :.,.,.0.;.! ! & 5.s S r A a r p q b b P v V 5 a f a , 1 2 q 2 < 2 f 1 r 8 u ",
"w ; : < u f e < d d y i V L b v b # = ,.;.0.= = = & -.r e / r q e B 5 f w _ I q w f f y f y 2 q < < 2 i r 0 : ",
"d q 5 < q w e y a < y y w s ..l l { # ,.! ;.0.= = = & +.a K C C v m F C C Q z y 5 y y f a S A f q f y w 0 r l ",
"y f y f < w q 2 < < ; - a < U a I r W # ! ;.,.0.= = =   &.P f z & & & 9 4 A N z a a s w q < y y w 5 : y r u : ",
"q w 8 a a , 1 1 q 2 < 2 a q a C y ' z x & ;.,.,.0.= = &   1.Q & ;.= & B d L s p Z < s N i 6 w y q r 3 q 4 w t ",
"q 7 8 9 f y g y 2 q < < q d r q q | _ J E & ,.,.,.0.= = &   & = ;.;.& u N U s F p q a u p u s q f N q C y d d ",
"y a q r w f u S S f 5 f y u N u 8 C 3.` C M & ,.,.= ;.= = & & :.;.= & #.K &.E J a r u S V q < 5 a d 5 N q : f ",
"q d 1 f w q q < y y w 5 , u v 8 y r D ) U q -.  ,.= = &   & :.,.  =     X.V , b v r a L y a < < q q 5 r w u w ",
"1 d f , 5 p s 6 w y q r 7 q r C 8 C p l 3.s p 7.  ,.= & ;.  :.;.    ;.  { P C C m , D N D y y a < 5 ; a a < e ",
"< q < a d t l a a w f l 6 C q r 5 m i 9 I l / ..8.  ,.= & ;.= 0.= ;.  :.:.:.) C k a D 5 a s a 1 1 s w < q y a ",
"2 : < q w r C 6 < 0 u d 5 f q 5 + J u z C i Z b l & = # # = ;.0.;.= # :.>.,.:.:.) y 9 < < q S y s z 5 u q 2 t ",
"5 < d < w u C r < < q q 5 5 u B y ; a L j C _ ' * = # ,.;.0.0.0.0.0.;.,.:.>.>.>.:.a y 6 6 6 g 1 f y q s y Z u ",
"5 u f a , q w q t a < q O r 5 u C y u P k e 2.& 0.0.0.#   = ;.0.;.=     X o . :.:.a 6 q 6 6 y s 1 < y f a y Z ",
"i ; f f y Z f y Z A 9 y w ; u B U Z u k x u v & ;.0.;.= & ;.= 0.= ;.&   I p p f z S F g 6 f y y s < s y y Z y ",
"2 q y y f y S L r a 2 f f y w q ) y B 9 a 4 E & & & & & ;.    ;.  & ;.&   ..s q y 5 b y a 6 6 1 2 2 B A f i i ",
"A < y f 2 q < a r A q a w Z w < b i a s 6 D ~ n G a y & & :.  ,.    &   &   +.f a k b y p r 1 a < A i s s i y ",
"y < 2 f f i q w B i Z a y y f 5 J R Z 6 Z G x D l  ./ / M :.,.    Z   & & &   I p s f y Z z 1 1 a w s s g i z ",
"d u g g u u u a p r e u y i a y p ( Z i Z ..i z q 6 b %.| :.0.,.  I `   & = ;.:.:.) 6 9 a f y 1 g 1 w i y u q ",
"< y f H S V q < r B 5 w y 5 f q Z S D Z S s / ( z q a p ) M :.0.  U z P   ;.0.0.,.:.9 5 q q g 1 y q 4 w y w r ",
"u < y A H q a 5 r q q l u 5 f a g s f s ^ g 1 i p i =.M U z :.,.:...$.p 9.:.0.0.,.  n k 9 5 s y y d r a q f l ",
"l C y q < f < r r C t t l A g A Z f S n i g s g s g q ~ U Z L :.:.l l m -.:.,.,.;.  9 , b w i y y < w < 5 a f ",
"a e q q d A B u V i A ; 4 t f s G g 1 s ( ~ ^ s s p l L ( p L P -.D y ( J L :.      ) 6 s f a f 2 q t 1 5 q q ",
"w 8 V a A N r q < y a u t s y g i g g g s s y G ( ) ^ r Z Z G 6 S 6 y q C r l u D a B a D s y f 2 q f y u 5 5 ",
"V 2 i A d V F t B 5 q q w u 2 f y s ^ s a w y s g y s y i y y a a L n k D J J b k z t t N f y w q 2 : , , 5 u ",
"y 4 q V d j N a q f i N r < a V s g 1 g g i S 6 i g S 1 A 1 y 1 s 4 p y t 5 ; a e q V w < a f y q 2 q w 5 a B ",
"F w a q : Y C : 5 5 5 A 5 w t q i V Z V 1 i i u i y i a y V y ; y 5 y y w r 3 q 7 < q d w i e w f q q a y r D ",
"S A q u 4 Y A r a ; q V p q 4 ; i g Z S q f a i 6 q S < q y d < 5 f s q f a q C 6 q q < u d w d q q a y w r e ",
"l q f q r F l N t a w q ; 8 p y q , V f q q a i q 8 g < f d f a A r < 5 p f 5 N q < q S a f y i u y u q N N q ",
"b y w r 4 F C : 0 t q V : r ; < q < , w < 2 i s q q d u f a q A V N 5 < q q 5 5 a f y p Z N 5 V a w < q a f 5 ",
"f q f l 0 C 8 e V A u l j l l V i w d u y Z f i p u f q f N q N 6 y i y 1 0 5 e l 5 r u < i A S w u 5 4 q q 5 ",
"< 5 a f 0 K r a w < 0 F r r t a u w y q y f H S f q < 5 u f 5 N q < q V a q i p C p r l C y q < d - y a < 5 O ",
"< < q q 0 r 0 V a 0 A u r a w d < 0 u q q y S S q u < 5 q q 5 5 a a q q f w B C 6 V 8 p 8 w 6 f A q ; : 5 w w ",
"y t < q O t r y u < y u u < q d d r 3 i A w w < d - u u < 5 O t 5 y 1 y y t t u r l @ w 5 V u V i f q 5 y f d ",
"4 < 5 w t ; a 5 w q u f a f a f d : ; ; f g q d A q ; : q q w ; i V f p j h 7 t l l , F q s G N a u f i a s y "
};
