/* XPM */
static char *_753e039c307435c9386f156aa9db8c6HfyOrKBJjO21DzML[] = {
/* columns rows colors chars-per-pixel */
"55 55 124 2 ",
"   c #23271F",
".  c #0E0F2C",
"X  c #100625",
"o  c #150C24",
"O  c #181224",
"+  c #24142C",
"@  c #477D05",
"#  c #392946",
"$  c #5B537D",
"%  c #4B8206",
"&  c #4D830A",
"*  c #4F880E",
"=  c #518507",
"-  c #50860C",
";  c #548B0E",
":  c #598E0E",
">  c #5B900F",
",  c #4E8411",
"<  c #518614",
"1  c #558D13",
"2  c #598F13",
"3  c #568C1A",
"4  c #5A8D1C",
"5  c #5C9314",
"6  c #5F9816",
"7  c #579018",
"8  c #5D941A",
"9  c #5F981A",
"0  c #619615",
"q  c #639917",
"w  c #689A17",
"e  c #61961B",
"r  c #649A1B",
"t  c #699E1B",
"y  c #67A01E",
"u  c #6AA11E",
"i  c #70A31F",
"p  c #5E9222",
"a  c #639525",
"s  c #669B22",
"d  c #699E24",
"f  c #64952A",
"g  c #68972B",
"h  c #679929",
"j  c #6C9D2C",
"k  c #709F23",
"l  c #679831",
"z  c #6C9A34",
"x  c #709E35",
"c  c #729E39",
"v  c #67A021",
"b  c #6DA323",
"n  c #6FA823",
"m  c #6DA229",
"M  c #71A622",
"N  c #74AA25",
"B  c #78AC27",
"V  c #71A42C",
"C  c #74AA2D",
"Z  c #7AAE29",
"A  c #7CB12C",
"S  c #6FA030",
"D  c #6FA039",
"F  c #73A334",
"G  c #75A933",
"H  c #79AB35",
"J  c #76A53D",
"K  c #75A33A",
"L  c #7AA43D",
"P  c #78A63D",
"I  c #7CA73F",
"U  c #79A839",
"Y  c #7BA93B",
"T  c #7CAD3B",
"R  c #7EAE3A",
"E  c #79A93C",
"W  c #7EAC3E",
"Q  c #7FAC3E",
"!  c #7BAA3A",
"~  c #7BB434",
"^  c #739E41",
"/  c #79A542",
"(  c #7CA842",
")  c #7DAA47",
"_  c #7DAE44",
"`  c #7DA944",
"'  c #7EAB48",
"]  c #82AC3F",
"[  c #81AB3D",
"{  c #80AB43",
"}  c #82AF40",
"|  c #83AD43",
" . c #80AD49",
".. c #81AC4C",
"X. c #80B146",
"o. c #86B046",
"O. c #83B042",
"+. c #8AB74D",
"@. c #89B44E",
"#. c #82AA50",
"$. c #85AB5A",
"%. c #8CB450",
"&. c #8BB455",
"*. c #8EB55F",
"=. c #8DB859",
"-. c #8FB959",
";. c #93BB5D",
":. c #8EAF65",
">. c #8EB463",
",. c #90B662",
"<. c #91B566",
"1. c #97BD67",
"2. c #93B962",
"3. c #96BA6F",
"4. c #98B96D",
"5. c #9BBE6B",
"6. c #9BC06B",
"7. c #A1C477",
"8. c #A0C178",
"9. c #A6C67D",
"0. c #A7C485",
"q. c #AACA80",
"w. c #ADC988",
"e. c #B1CE8D",
/* pixels */
"u t - : : 5 : w u t 2 6 0 5 j ~ _ z K J F +.^ { z a / c c | c [ | | Q K j j x a t t w w & y u 0 i 0 : 6 ; ; > ",
"y u q u 0 : 0 u q e q t 5 u G j 5 9 5 1.X X X X X X X X X X X X X X X X =.8 V 2 e M M : 5 0 0 u r N M u 1 u q ",
"0 0 u w N N u 5 i y 6 h d t r 9 m j o X $ $ $ $ $ $ $ $ $ $ $ $ $ $ $ $ X X *.Z j & b N ; w t 0 5 ; 6 0 5 1 - ",
"q t 5 5 ; 0 0 q 1 5 Z B n 5 r X.,.X $ $ # # # # # # # # # # # # # # # # + + X x n 9 = 0 ; : w t w 5 6 0 6 9 < ",
"> w u r 5 6 6 5 8 5 N B d Z 0 8.X $ # # # # # # # # # # # # # # # # # # # # + X j 4 2 [ F N M q 9 r t 5 u d 2 ",
"i i q r r t 5 u m 0 5 5 e 8 H X $ # # # # # # # # # # # # # # # # # # # # # # + X :.d ; M ; 0 &.C > ; 1 r y 1 ",
"u A N n 5 ; 1 r 5 5 5 V v x o $ # # # # # # # # # # # # # # # # # # # # # # # # + X r a 4 u t b e r ; ; 5 5 1 ",
"q N B 5 r ; ; 5 1 b 2 e R X $ # # # # # # # # # X X $ # # # X X # # # # # # # # # + X 4.r 8 2 2 d 9 5 9 ; 1 % ",
"0 5 ; y % 0 r r : & ; e o $ # # # # # # # # X X X X $ # # # X X X X # # # # # # # # + X e d e U P p 0 5 ; 5 & ",
"6 2 y N 6 - & 5 < U r 4.X $ # # # # # # # . . . . X $ # # # X . . . X # # # # # # # + X v 5.t c Y P - - 1 6 6 ",
"n r i t y 5 1 r k a 1 X $ # # # # # # # X . . . . X $ # # # X . . . . X # # # # # # # + X c e w z ;.5 1 q u y ",
"w N r q q u q t ] a 0.X $ # # # # # # X . . . . . X $ # # # X . . . . . X # # # # # # + X e ; @ x I i e t w q ",
"5 b r * 5 5 3 e h M X $ # # # # # # X . . . . . . X $ # # # X . . . . . . X # # # # # # +   ; e x ; > 4 e e 0 ",
"t > * 2 5 * 3 7 L e X $ # # # # # # X . . . . . . X $ # # # X . . . . . . X # # # # # # + X 2 2 a b e 3 3 r 6 ",
"5 t , q t 9 3 t m c X $ # # # # # X . . . . . . . X $ # # # . . . . . . . . X # # # # # + X a [ r 2 1 3 5 * q ",
"n q b w 6 s 8 9 G o $ # # # # # # X . . . . . . . X $ # # # X . . . . . . . X # # # # # # + X c 2 9 3 7 8 s q ",
"5 N r N C C 9 5 h o $ # # # # # # . . . . . . . . X $ # # # X . . . . . . . X # # # # # # + X K t v S s r * n ",
"y * 9 r 6 b ; 1 h o $ # # # # # X . . . . . . . . X $ # # # X . . . . . . . . X # # # # # + X e.s u ' t 6 r 1 ",
"9 1 y ; 9 7 t 2 m O $ # # # # # X . . . . . . . . X $ # # # . . . . . . . . . X # # # # # + X L 5 5 >.7 y y M ",
"y 9 r y > n 2 0 C o $ # # # # # X . . . . . . . . X $ # # # X . . . . . . . . X # # # # # + X / 1 1 ( q - y N ",
"9 7 n b y n 9 t d o $ # # # # X . . . . . . . . . X $ # # # X . . . . . . . . . . # # # # + X / 7 r V * 0 0 u ",
"7 9 6 q 1 e t 9 m X $ # # # # X . . . . . . . . . X $ # # # X . . . . . . . . . X # # # # + X <.q y t r w i i ",
"n 6 6 7 t ; 5 5 d X $ # # # # X . . . . . . . . . X $ # # # X . . . . . . . . . X # # # # + X 3.t 0 q u 0 t i ",
"y 7 i q 5 r 2 b 8.X $ # # # # X . . . . . . . . . X $ # # # X . . . . . . . . . X # # # # + X l e 5 0 6 0 > 0 ",
"1 ; 5 5 6 y 0 t *.X $ # # # # o . . . . . . . . . . $ # # # X . . . . . . . . . X # # # # + X f 2 r r q 0 i i ",
"2 ; 6 q 5 y r 9 F X $ # # # # X . . . . . . . . . X $ # # # X . . . . . . . . . X # # # # + X p 9 e u 2 w = 2 ",
"1 u q 6 2 e 5 2 #.X $ # # # # X . . . . . . . . . X $ # # # X . . . . . . . . . X # # # # + X s 9 t u 2 2 5 t ",
"6 1 * q 5 e u 8 2.X $ # # # # X . . . . . . . . . X $ # # # X . . . . . . . . . X # # # # + X a r 0 5 t ; : 5 ",
"5 9 < 6 , ; r | G X $ # # # # X X X X X X X X X X . $ # # # X X X X X X X . X X X # # # # + X 2 r 0 y u t d < ",
"v t 2 m 2 5 1 | T X $ # # # # $ $ $ $ $ $ $ $ $ $ $ $ # # # $ $ $ $ $ $ $ $ $ $ $ # # # # + X t r 0 ; ; i : ; ",
"e u 1 v 5 ; ; V D X $ # # # # $ $ $ $ $ $ $ $ $ $ $ $ # # # $ $ $ $ $ $ $ $ $ $ $ # # # # + X / ; 5 u t M ; 5 ",
"5 5 1 1 w r e ; p X $ # # # # # # # # # # # # # # # $ # # # # # # # # # # # # # # # # # # + X ( v q ; 1 5 5 i ",
"; 1 @ e 1 1 g 2 j X $ # # # # # # # # # # # # # # # $ # # # # # # # # # # # # # # # # # # + X P 1 m 5 > 6 w w ",
"1 6 6 & q r ( r O.X $ # # # # X X X X X X X X . X X $ # # # X X X X . X X X X X X # # # # + X m s 9 y 6 0 0 0 ",
"q u u 0 6 r | v [ X $ # # # # X . . . . . . . . . X $ # # # X . . . . . . . . . X # # # # + X m m r ; q 0 t 6 ",
"t w 0 n 9 2 8 d 9.X $ # # # # X . . . . . . . . . X $ # # # X . . . . . . . . . X # # # # + X ..n ; ; ; % : : ",
"r e 6 0 y 1 3 4 9.X $ # # # # X . . . . . . . . . X $ # # # X . . . . . . . . . X # # # # + X d 5 5 > ; > i > ",
"3 r 6 q r r 3 8 $.X $ # # # # o . . . . . . . . . X $ # # # X . . . . . . . . . X # # # # + X 1 1 > 5 ; ; > q ",
"7 * q 1 i e 9 e ,.X $ # # # # X . . . . . . . . . X $ # # # X . . . . . . . . . X # # # # + X 4 6 M u 1 u w 6 ",
"9 s q 1 u k e d q.X $ # # # # X . . . . . . . . . X $ # # # . . . . . . . . . . X # # # # + X U u 0 q 6 1 & 0 ",
"t & n N i N ; r w.X $ # # # # X . . . . . . . . . o $ # # # X . . . . . . . . . X # # # # + X H q 0 0 5 9 < 6 ",
"9 9 1 q t b t u &.X $ # # # # X . . . . . . . . . X $ # # # X . . . . . . . . . X # # # # + X d e t 5 u d 2 m ",
"t y M u q t 5 8 @.X $ # # # # X . . . . . . . . . X $ # # # X . . . . . . . . . X # # # # + X @.t ; 1 r y 1 v ",
"* u M u 2 M e 5 { X $ # # # # X . . . . . . . . . X $ # # # X . . . . . . . . . X # # # # + X h V ; ; 5 5 1 1 ",
"6 6 b > u M d 5 ' X $ # # # # X . . . . . . . . . X $ # # # X . . . . . . . . . X # # # # + X V z r e ; 2 @ 9 ",
"; 2 > 5 B 5 e 5 ` X $ # # # # X . . . . . . . . . X $ # # # X . . . . . . . . . X # # # # + X z ` & - 1 9 5 & ",
"5 5 6 u 0 t 5 : d X $ # # # # X . . . . . . . . . X $ # # # X X . . . . . . . . X # # # # + X d U 6 1 q u y r ",
"5 ; ; > r w s M r X $ # # # # X X X . X X X X X . X $ # # # X X X X X X X X X X X # # # # + X d r u q t w 0 n ",
"u 1 u w 6 2 v q M X $ # # # # $ $ $ $ $ $ $ $ $ $ $ $ # # # $ $ $ $ $ $ $ $ $ $ $ # # # # + X w w 0 3 e e 0 0 ",
"0 q 1 & q 7 5 M 0 X $ # # # # $ $ $ $ $ $ $ $ $ $ $ $ # # # $ $ $ $ $ $ $ $ $ $ $ # # # # + X a @ < 3 3 r 0 w ",
"0 6 5 < 5 < 1 w w X $ # # # # # # # # # # # # # # # # # # # # # # # # # # # # # # # # # # + X g 0 h 4 2 * q 1 ",
"5 u d 2 m 5 5 w 0 X $ # # # # # # # # # # # # # # # # # # # # # # # # # # # # # # # # # # + X g 4 k e 8 s q 1 ",
"2 e t 1 v 5 ; w k X $ # # # # # # # # # # # # # # # # # # # # # # # # # # # # # # # # # # + X c N H 8 w * m N ",
"1 5 5 1 1 w y u 0 X # + + + + + + + + + + + + + + + + + + + + + + + + + + + + + + + + + + + X I p F ; 6 9 1 9 ",
"e ; 1 @ e 2 t j 2 X X X X X X X X X X X X X X X X X X X X X X X X X X X X X X X X X X X X X X j 9 < b y y n y "
};
