/* XPM */
static char *result[] = {
/* columns rows colors chars-per-pixel */
"55 55 113 2 ",
"   c #6AA222",
".  c #598E0E",
"X  c #68A01C",
"o  c #5C9314",
"O  c #649B1A",
"+  c #579018",
"@  c #619615",
"#  c #548B0E",
"$  c #579014",
"%  c #70A31F",
"&  c #558D13",
"*  c #699E1B",
"=  c #689A17",
"-  c #78AC27",
";  c #4D840B",
":  c #4B8206",
">  c #639917",
",  c #6BA01D",
"<  c #598F12",
"1  c #6FA621",
"2  c #75AB26",
"3  c #5F9816",
"4  c #69992B",
"5  c #5D951A",
"6  c #4E8411",
"7  c #518613",
"8  c #5B900F",
"9  c #70A722",
"0  c #90BC56",
"q  c #67A01E",
"w  c #6DA41F",
"e  c #50860C",
"r  c #6FA21E",
"t  c #70A21F",
"y  c #75A722",
"u  c #4F880E",
"i  c #61961B",
"p  c #72A521",
"a  c gray79",
"s  c #76AC28",
"d  c #598E1A",
"f  c #568C1A",
"g  c #72AA25",
"h  c #6AA11E",
"j  c #6FA823",
"k  c #6DA21E",
"l  c #6EA527",
"z  c #73AA25",
"x  c #6BA41F",
"c  c #888888",
"v  c #5F981A",
"b  c #9E9D9D",
"n  c #67A021",
"m  c #6AA123",
"M  c #68A11D",
"N  c gray76",
"B  c #679F20",
"V  c #7CB12C",
"C  c #F6F4F4",
"Z  c #477D05",
"A  c gray64",
"S  c #4B4747",
"D  c #4C5A5F",
"F  c #80B836",
"G  c #699E21",
"H  c #72AA2A",
"J  c #6BA226",
"K  c #639921",
"L  c #5D5D5D",
"P  c #6E6B6B",
"I  c #3C494D",
"U  c #7AB433",
"Y  c #6AA229",
"T  c #689F26",
"R  c #E2E2E2",
"E  c gray71",
"W  c #A0A0A0",
"Q  c #838282",
"!  c #883636",
"~  c gray46",
"^  c gray40",
"/  c gray61",
"(  c #5C5959",
")  c #7C7C7C",
"_  c #4B4B4B",
"`  c #74AB2C",
"'  c #73A826",
"]  c #75AB2B",
"[  c #667980",
"{  c #6EA323",
"}  c #515151",
"|  c #2E4453",
" . c #6DA521",
".. c #1E2F3B",
"X. c #713030",
"o. c #A4AEB2",
"O. c #929CA0",
"+. c gray52",
"@. c #333C3F",
"#. c #414E53",
"$. c #56666C",
"%. c #7AAE29",
"&. c #6DA42B",
"*. c #586A71",
"=. c #7BB02B",
"-. c #659D21",
";. c #7BAE29",
":. c #80B32E",
">. c #445358",
",. c #528719",
"<. c #518507",
"1. c #5F9820",
"2. c #7FAF3F",
/* pixels */
"  . X o O + @ # $ $ o % & % # * = - . . X o X ; : @ > , < . O 1 2 3 4 5 < 6 7 @ @ 8 8 O # 9 9 @ o O o 1 O 5 0 ",
"q w e + $ + o @ 8 @ = = 2 o * * > 8 @ 8 r 8 o # 3 8 X $ O + @ # $ $ o t & t . * = - . 8 X + X e : O @ 5 7 & y ",
"o # O X + u q q @ @ @ @ 8 . $ i > X % 8 @ o & # O 1 u + $ + 3 3 8 @ = = 2 o * * @ 8 @ 8 p . o e : i O 5 @ 3 t ",
"u # o 3 + > O # @ a a @ @ @ 8 & s & X @ O i d # o # O X + u q O @ @ @ @ 8 . + i > X w 8 @ o & u f < g i O o * ",
". X # 3 o 8 # # ; : a a a X o h $ o O @ O . @ 8 u # 3 @ + @ O # > @ * @ @ @ 8 & s & X @ > O & 3 < 6 < O @ h o ",
"> w O e 8 8 o . # 8 w 8 a a a j > 8 O h 8 o o & # q # @ 3 . # # e : . 8 o X o X < 3 O @ > # o $ O i ; h X 2 o ",
"; X k @ % @ . o . # 8 i > a a a a > > h 8 < 1 & O w O e . . 3 . # 8 % 8 > o & g @ o * h 8 o 5 l ; o # g h h g ",
"o @ @ X O z g x & w O @ & O o a a a a 3 3 * @ * ; X * @ t @ . o # # 8 > > o & > & @ @ h 8 o w # o 5 g O & & # ",
"# @ X o o . @ @ @ & ; @ & o 1 3 # a c a a w j . o @ @ h O 2 g w $ w @ 3 & i $ > x X 3 3 o 8 u + i & & + o & ; ",
"# . * h O $ o @ o v 7 3 7 # o h 3 O a a c a a a # @ X b b b @ @ @ & # @ + 3 1 3 # O q @ o 8 $ q o # X u q 2 j ",
"> % % > i O * o w n $ m < o 3 # O M o h N c c c N N b c b b b @ $ 5 6 o 7 # o * 3 O + 3 h o o B j o o # o $ v ",
"@ w V - 1 $ # & i h &   o # o - X X > > > a a c C b c c c c b b w   + m < $ 3 # O X o q o o x @ h @ O 3 o @ 5 ",
"o @ 2 - o O # # 3 + & & O X o $ % X : w @ X o C b c c c c c c b b x &   o # o 2 X X > > @ @ O & 3 O @ x o i 7 ",
"& > + # h : > i # & Z i & @ . @ @ w 8 # + h C A c c S S c c c c c b & & O X o o r X : w 3 X 8 & q ; X > O @ M ",
"B i < h 2 o e e & @ 3 ; @ 1 h @ O X > x * * C A c c b b S S c c c c Z i & D . @ @ w 8 # 3 h q o u O g @ j @ o ",
"3 F m f G f & O & & # 3 3 < O < o x @ x w > C A c c c c b b S S S c a a > D x @ O M > X O X q # ; ; O z X O 2 ",
"O H J d K i < * O & g O 5 & o @ O w h O O C C L c c P c c c c c c c c c D I O . @ h @ w w = 8 8 3 @ O @ @ o h ",
"i U Y 5 5 5 > # j + @ O 3 3 T o o # . 8 C C R E L L L c P W Q c a c c D D I o @ O h h O O @ > o 3 O @ @ w * # ",
"& U i 5 5 h o O o i @ 3 3 @ @ O o k C C C E E E ! ! ! L L ~ P ! d a c D D D ^ ^ ^ ^ . . @ O o O O O * * h @ . ",
"u s 9 @ 2 s @ 2 o g O 3 @ o @ g C C C C E R E . / / ! ! ! L L ! ( ^ ) D I I _ _ _ ^ o o w * o @ . $ @ O @ g g ",
"3 ` ' ] o O 8 o $ g + 8 + X C C C R C R E E / / / ^ [ ! ! ! ! ! ( ^ ^ ) t < ^ _ _ D @ # O > # . t k % @ # h X ",
"# ` i @ + 2 . O O g > 3 # # C C E E R E E / / / ^ ^ [ [ [ ! ! [ ( ( ^ ) h ^ ^ _ I D D D o g - > - * * @ @ @ % ",
"1 H { i g @ 2 g 8 3 q 8 3 u C A R E E E / / / ^ D D [ [ [ [ [ [ 7 ( ^ ^ ) ^ _ _ y I I I o X X % V % = > @ k 8 ",
"v 5 1 O v i & O O O $ # ; u 3 R E / / } / ^ ^ & | D D [ [ D [ [ f 7 ( _ _ ^ _ * . * o @ & O X O > O * 7 8 @ O ",
"h q g X o w # 9 1 3 3 @ $ @ q 3 , / / } ^ o + 3 | | D D D D D D B f ( ^ ^ _ o * O X h @ @ h & @ w @ f 7 @ X h ",
"3 q 3 * z . 8 $ 1 i u B O i & & / } } } O + 3 . | | ! D D D D ] d f 3 ( ( 2 + g O > O o 8 8 v & 3 @ f f @  .$ ",
"& q . h o O + @ # 5 B 7 O i + / / / ^ + $ + $ @ | | ! ! ! | & t 1 g u  .8 3 < g + $ o q # x 3 q 3 $ 3 o 3 h < ",
". q w ; + $ + o @ $ < h O / ^ / / ^ ^ h & # q h | ..! ! X...@ , 3 X o X # * O 1 X @ # # q q 3 u M 8 & O i o * ",
"# o # > X + u q h 3 / / / ^ / ^ ^ ^ o 3 + > O ....X.X.X...o.o.o.o.X o @ g g . 3 X 8 3 u # ; u j q @ > O h q h ",
"8 u # o @ + > O # / ^ / ^ ^ ^ ^ # X # 3 o 8 o.O.O.O.X.X.O.O.o.o.o.o.: @ f O O * & # ; u 3 X q g h o w # 2 # # ",
"& # X . 3 o 8 # +./ ^ / ^ ^ j & O w O e o.o.o.o.O.O.O.[ @.@.O.O.O.o.o.l & 1 j 3 o @ o 3 q 3 X 3 X z 8 8 & h X ",
"$ > w O ; 8 8 o +./ ^ t > X @ = ; X k o.o.o.o.O.O.@.[ [ [ #.@.@.@.O.o.o.<    .i u B O v & & X . * o O + 3 # & ",
"O : X h @ % @ 8 ^ # # 8 @ 1 1 . o @ @ o.o.o.O.O.@.$.[ [ [ D #.#.#.@.O.O.o.8 o o x & * v + . q w # + 8 + $ 3 8 ",
"8 o @ @ , O 2 2 w & 1 @ 3 # 1 g # o.o.o.o.O.O.@.$.[ [ D D D D D D #.@.@.O.o.+ @ # + i e + # + # O M + u q q 3 ",
"g # > * o o # @ @ 3 & u 3 # ; @ o.o.o.o.O.O.@.$.$.$.#.#.#.D D D D D #.#.@.O.o.o 3 8 @ $ @ 8 # # o 3 + @ O # @ ",
"@ # 8 = , O $ @ @ o 3 6 3 3 h * o.o.o.O.O.@.$.[ $.  $ #.#.#.#.D D D D D #.@.O.o.q 3 @ @ o & # X # @ o 8 . # u ",
"* @ w % @ i O X o w n + * 5 > o.o.o.O.O.@.$.[ $.$.h v o v #.#.#.#.D D D D #.O.o.# @ @ O X < O w O e . . o . # ",
"$ @ w V %.j # # & i h & m & 5 o.o.O.O.@.$.[ $.$.o o 3 7 O m #.#.#.#.D D D D D # # # : 8 o > ; X k @ % @ . o # ",
"i # @ 2 %.+ O . # o o & i i o.o.O.O.@.$.[ $.$.i # + u v O i $ j #.#.#.#.D D @.D D # 8 % @ 8 o @ @ X O 2 g w & ",
"B &.@ o # h : > i # & Z 5 1 o.O.O.@.$.[ $.$.# # o & 3 O $ , O @ * o #.#.@.@.D D D D # 8 @ w . > * o o # @ @ 3 ",
"O + o $ X z $ # # & 3 3 7 q ; @.@.$.@.$.$.* = X # ; ; O y X O 2 X o X @ h #.@.D D D h @ 3 o # . X , O $ @ @ o ",
"@ & 9 > g O X o & @ h h @ @ @.[ $.$.@.> w w > 8 8 @ @ O @ @ o h X g 8 X o o #.@.@.@.@.# O O > % % @ i O X o w ",
"g . = z > O O X @ h O @ j [ *.@.@.$., * O O @ O o 3 O @ @ , X # # # X = , O $ #.#.D D D @ & @ w V - w $ . & i ",
"@ 7 o 9 O e o o + i O @ [ [ *.*.*.3 # . 8 @ O o q O O = * , o 8 # g : % > i O #.#.#.D D i i # @ 2 %.o O # # o ",
"s @ * < 6 $ o 7 f f > [ [ *.$.$.O o h o 3 w * $ 3 . $ @ O @ 2 g > e : V 2 1 $ # #.#.#.D D n &.@ o . X : O i # ",
"g g o O 7 @ O i f + [ [ [ $.$.g z e * @ # O @ # . w * 9 @ & h X O + O 2 =.o O # & #.#.#.D D + o $ x g o # ; + ",
"o o 9 O l O 3 -.5 5 [ $.$.$.= t * o * $ @ h : @ t = % * @ @ # @ O O 8 o # h : i i @ 5 #.D D & j O % O X $ & @ ",
"o O o g O g ` s 5 [ [ $.2 % % z k y * g @ O @ p t . @ - O O 3 O o > # o 1 h + f 6 5 i i #.#.D > g O O @ k > * ",
"i   h u v O 3  .@.@.@.$ v X * ;.% . = 8 * = . . * . r . * = @ > i { # $ $ 5 o + 6 o & 5 5 @.D D { O # $ o f i ",
"i 5 v & q # v [ [ $.$.j X 3 * O y , * t r . , > * :.:.. * @ o @ O O : O > > 7 w O 7 5 G l s @.@.< 6 $ o 7 < d ",
"v + n v O q [ [ [ $.X z X 8 % @ t :.* * > > * * @ k . @ $ . o e i > . 3 q O @ O @ u 1 5 $ g >.D D 7 O O i f f ",
"1 n i + j 1 [ [ $.$.@ w 8 h j k % < % % > - . * t y . z . @ 8 k 7 i @ i i X @ i & v 5 -.1 o >.>.D D O @ B 5 5 ",
"3 + & v 3 [ [ [ $.# + 8 @ - o > 9 y 9 . > * > = @ O O > 1 @ e > & $ # 3 5 & 5 J -.l ,.l & o >.>.>.D D ` H 5 O ",
"n  . .3 3 $.$.$.$.@ i O , O * = * y - o * O = < + 2 . $ @ * e & g @ <.+ 3 -.1.J Y ,.1.+ j i >.>.>.>.D D l # 3 ",
"q 3 n + j O o O $ . @ $ h 3 h $ * * @ > < * = o & 9 # h * w O { B 6 : O 7 n 1.+ B 5 O + v v v v & n # v + q 2."
};
