/* XPM */
static char *result[] = {
/* columns rows colors chars-per-pixel */
"55 55 113 2 ",
"   c #6AA222",
".  c #598E0E",
"X  c #68A01C",
"o  c #5C9314",
"O  c #649B1A",
"+  c #579018",
"@  c #619615",
"#  c #548B0E",
"$  c #579014",
"%  c #70A31F",
"&  c #558D13",
"*  c #699E1B",
"=  c #689A17",
"-  c #78AC27",
";  c #4D840B",
":  c #4B8206",
">  c #639917",
",  c #6BA01D",
"<  c #598F12",
"1  c #6FA621",
"2  c #75AB26",
"3  c #5F9816",
"4  c #69992B",
"5  c #5D951A",
"6  c #4E8411",
"7  c #518613",
"8  c #5B900F",
"9  c #70A722",
"0  c #90BC56",
"q  c #67A01E",
"w  c #6DA41F",
"e  c #50860C",
"r  c #6FA21E",
"t  c #70A21F",
"y  c #75A722",
"u  c #4F880E",
"i  c #61961B",
"p  c #72A521",
"a  c #76AC28",
"s  c #598E1A",
"d  c gray79",
"f  c #568C1A",
"g  c #72AA25",
"h  c #6AA11E",
"j  c #6FA823",
"k  c #6DA21E",
"l  c #6EA527",
"z  c #73AA25",
"x  c #6BA41F",
"c  c #888888",
"v  c #5F981A",
"b  c #9E9D9D",
"n  c #67A021",
"m  c #6AA123",
"M  c #68A11D",
"N  c #518507",
"B  c gray76",
"V  c #679F20",
"C  c #7CB12C",
"Z  c #F6F4F4",
"A  c #477D05",
"S  c #4B4747",
"D  c gray64",
"F  c #4C5A5F",
"G  c #80B836",
"H  c #699E21",
"J  c #72AA2A",
"K  c #6BA226",
"L  c #639921",
"P  c #3C494D",
"I  c #6E6B6B",
"U  c #5D5D5D",
"Y  c #7AB433",
"T  c #6AA229",
"R  c #689F26",
"E  c #838282",
"W  c #A0A0A0",
"Q  c gray71",
"!  c #E2E2E2",
"~  c gray40",
"^  c #883636",
"/  c gray46",
"(  c #6DA42B",
")  c #4B4B4B",
"_  c #7C7C7C",
"`  c #5C5959",
"'  c gray61",
"]  c #74AB2C",
"[  c #73A826",
"{  c #75AB2B",
"}  c #667980",
"|  c #6EA323",
" . c #2E4453",
".. c #515151",
"X. c #6DA521",
"o. c #1E2F3B",
"O. c #713030",
"+. c #A4AEB2",
"@. c #929CA0",
"#. c #333C3F",
"$. c gray52",
"%. c #414E53",
"&. c #56666C",
"*. c #7AAE29",
"=. c #586A71",
"-. c #7BB02B",
";. c #659D21",
":. c #7BAE29",
">. c #80B32E",
",. c #445358",
"<. c #528719",
"1. c #5F9820",
"2. c #7FAF3F",
/* pixels */
"  . X o O + @ # $ $ o % & % # * = - . . X o X ; : @ > , < . O 1 2 3 4 5 < 6 7 @ @ 8 8 O # 9 9 @ o O o 1 O 5 0 ",
"q w e + $ + o @ 8 @ = = 2 o * * > 8 @ 8 r 8 o # 3 8 X $ O + @ # $ $ o t & t . * = - . 8 X + X e : O @ 5 7 & y ",
"o # O X + u q q @ @ @ @ 8 . $ i > X % 8 @ o & # O 1 u + $ + 3 3 8 @ = = 2 o * * @ 8 @ 8 p . o e : i O 5 @ 3 t ",
"u # o 3 + > O # @ @ * @ @ @ 8 & a & X @ O i s # o # O X + u q O @ @ @ @ 8 . + i > X w 8 d d & u f < g i O o * ",
". X # 3 o 8 # # ; : . 8 o X o h $ o O @ O . @ 8 u # 3 @ + @ O # > @ * @ @ @ 8 & a & d d d O & 3 < 6 < O @ h o ",
"> w O e 8 8 o . # 8 w 8 > o & j > 8 O h 8 o o & # q # @ 3 . # # e : . 8 o X o X d d d @ > # o $ O i ; h X 2 o ",
"; X k @ % @ . o . # 8 i > o & @ & > > h 8 < 1 & O w O e . . 3 . # 8 % 8 > o d d d d * h 8 o 5 l ; o # g h h g ",
"o @ @ X O z g x & w O @ & O o i X X @ 3 3 * @ * ; X * @ t @ . o # # 8 > d d d d & @ @ h 8 o w # o 5 g O & & # ",
"# @ X o o . @ @ @ & ; @ & o 1 3 # O h @ 3 w j . o @ @ h O 2 g w $ w d d c d $ > x X 3 3 o 8 u + i & & + o & ; ",
"# . * h O $ o @ o v 7 3 7 # o h 3 O + 3 O # w g # b b b o # @ d d d c d d 3 1 3 # O q @ o 8 $ q o # X u q 2 j ",
"> % % > i O * o w n $ m < o 3 # O M o h o # N @ b b b c b B B c c c B o 7 # o * 3 O + 3 h o o V j o o # o $ v ",
"@ w C - 1 $ # & i h &   o # o - X X > > > O X b b c c c c b Z c d d + m < $ 3 # O X o q o o x @ h @ O 3 o @ 5 ",
"o @ 2 - o O # # 3 + & & O X o $ % X : w @ X b b c c c c c c b Z i x &   o # o 2 X X > > @ @ O & 3 O @ x o i 7 ",
"& > + # h : > i # & A i & @ . @ @ w 8 # + b c c c c c S S c c D Z o & & O X o o r X : w 3 X 8 & q ; X > O @ M ",
"V i < h 2 o e e & @ 3 ; @ 1 h @ O F > x * c c c c S S b b c c D Z & A i & @ . @ @ w 8 # 3 h q o u O g @ j @ o ",
"3 G m f H f & O & & # 3 3 < O < o F @ d d c S S S b b c c c c D Z 3 @ ; > w x @ O M > X O X q # ; ; O z X O 2 ",
"O J K s L i < * O & g O 5 & o @ O P F c c c c c c c c c I c c U Z Z @ @ 3 . O . @ h @ w w = 8 8 3 @ O @ @ o h ",
"i Y T 5 5 5 > # j + @ O 3 3 R o o P F F c c d c E W I c U U U Q ! Z Z g 3 # o @ O h h O O @ > o 3 O @ @ w * # ",
"& Y i 5 5 h o O o i @ 3 3 ~ ~ ~ ~ F F F c d o ^ I / U U ^ ^ ^ Q Q Q Z Z Z & ( 3 o # . . @ O o O O O * * h @ . ",
"u a 9 @ 2 a @ 2 o g O 3 @ ~ ) ) ) P P F _ ~ ` ^ U U ^ ^ ^ ' ' l Q ! Q Z Z Z Z O o h o o w * o @ . $ @ O @ g g ",
"3 ] [ { o O 8 o $ g + 8 + F ) ) ~ * o _ ~ ~ ` ^ ^ ^ ^ ^ } ~ ' ' ' Q Q ! Z ! Z Z Z * @ # O > # . t k % @ # h X ",
"# ] i @ + 2 . O O g > F F F P ) ~ ~ g _ ~ ` ` } ^ ^ } } } ~ ~ ' ' ' Q Q ! Q Q Z Z * o + o g - > - * * @ @ @ % ",
"1 J | i g @ 2 g 8 3 q P P P # ) ) ~ _ ~ ~ ` < } } } } } } F F ~ ' ' ' Q Q Q ! D Z * , + o X X % C % = > @ k 8 ",
"v 5 1 O v i & O O O $ # ; u 3 q ) ~ ) ) ` O s } } F } } F F  .i ~ ~ ' ..' ' Q ! . * o @ & O X O > O * 7 8 @ O ",
"h q g X o w # 9 1 3 3 @ $ @ q 3 , ) ~ ~ ` o + F F F F F F  . .f V f ~ ..' ' o * O X h @ @ h & @ w @ f 7 @ X h ",
"3 q 3 * z . 8 $ 1 i u V O i & & O o ` ` O + 3 . F F F F ^  . .{ s f 3 ......' g O > O o 8 8 v & 3 @ f f @ X.$ ",
"& q . h o O + @ # 5 V 7 O i + 8 h w ; + $ + $ @ .  .^ ^ ^  . .t 1 g u X.~ ' ' ' + $ o q # x 3 q 3 $ 3 o 3 h < ",
". q w ; + $ + o @ $ < h O 6 + & o # O h & # q h @ o.O.^ ^ o. ., 3 X o X ~ ~ ' ' ~ ' # # q q 3 u M 8 & O i o * ",
"# o # > X + u q h 3 @ @ o # @ 8 u # o 3 + > +.+.+.+.o.O.O.O.o.o.O X o @ g ~ ~ ~ ' ~ ' ' ' ; u j q @ > O h q h ",
"8 u # o @ + > O # > @ O   > o & # X # 3 o +.+.+.+.@.@.O.O.@.@.@.+.o : @ f O O ~ ~ ~ ~ ' ~ ' q g h o w # 2 # # ",
"& # X . 3 o 8 # # e : . @ & j & O w O e +.+.@.@.@.#.#.} @.@.@.+.+.+.+.l & 1 j 3 o ~ ~ ' ~ ' $.3 X z 8 8 & h X ",
"$ > w O ; 8 8 o . # 8 t > X @ = ; X k +.+.@.#.#.#.%.} } } #.@.@.+.+.+.+.<   X.i u V O v ~ ' $.. * o O + 3 # & ",
"O : X h @ % @ 8 o # # 8 @ 1 1 . o @ +.@.@.#.%.%.%.F } } } &.#.@.@.+.+.+.% 8 o o x & * v + . ~ w # + 8 + $ 3 8 ",
"8 o @ @ , O 2 2 w & 1 @ 3 # 1 g # +.@.#.#.%.F F F F F F } } &.#.@.@.+.+.+.+.+ @ # + i e + # + # O M + u q q 3 ",
"g # > * o o # @ @ 3 & u 3 # ; @ +.@.#.%.%.F F F F F %.%.%.&.&.&.#.@.@.+.+.+.+.o 3 8 @ $ @ 8 # # o 3 + @ O # @ ",
"@ # 8 = , O $ @ @ o 3 6 3 3 h +.@.#.%.F F F F F %.%.%.%.n O &.} &.#.@.@.+.+.+.q q 3 @ @ o & # X # @ o 8 . # u ",
"* @ w % @ i O X o w n + * 5 > +.@.%.F F F F %.%.%.%.v o v o &.&.} &.#.@.@.+.+.+.# @ @ O X < O w O e . . o . # ",
"$ @ w C *.j # # & i h & m & 5 i F F F F F %.%.%.%.o 3 7 O m @ &.&.} &.#.@.@.+.+.# # : 8 o > ; X k @ % @ . o # ",
"i # @ 2 *.+ O . # o o & i i F F #.F F %.%.%.%.i # + u v O i $ j &.&.} &.#.@.@.+.+.# 8 % @ 8 o @ @ X O 2 g w & ",
"V ( @ o # h : > i # & A 5 F F F F #.#.%.%.o # # o & 3 O $ , O @ * &.&.} &.#.@.@.+.# # 8 @ w . > * o o # @ @ 3 ",
"O + o $ X z $ # # & 3 3 7 F F F #.%.O , h * = X # ; ; O y X O 2 X o &.&.#.&.#.#.w & h @ 3 o # . X , O $ @ @ o ",
"@ & 9 > g O X o & @ h h #.#.#.#.%.@ h > w w > 8 8 @ @ O @ @ o h X g 8 X #.&.&.} #.3 & # O O > % % @ i O X o w ",
"g . = z > O O X @ h O F F F %.%.@ O , * O O @ O o 3 O @ @ , X # # # X = , &.#.#.=.} 5 7 @ & @ w C - w $ . & i ",
"@ 7 o 9 O e o o + i O F F %.%.%.o 3 # . 8 @ O o q O O = * , o 8 # g : % > i =.=.=.} } < i i # @ 2 *.o O # # o ",
"a @ * < 6 $ o 7 f f F F %.%.%.> O o h o 3 w * $ 3 . $ @ O @ 2 g > e : C 2 1 $ &.&.=.} } v n ( @ o . X : O i # ",
"g g o O 7 @ O i f F F %.%.%.$ g z e * @ # O @ # . w * 9 @ & h X O + O 2 -.o O # &.&.} } } i + o $ x g o # ; + ",
"o o 9 O l O 3 ;.5 F F %.< t = t * o * $ @ h : @ t = % * @ @ # @ O O 8 o # h : i i &.&.&.} 3 & j O % O X $ & @ ",
"o O o g O g ] a F %.%.l 2 % % z k y * g @ O @ p t . @ - O O 3 O o > # o 1 h + f 6 5 i &.} } . > g O O @ k > * ",
"i   h u v O 3 F F #.v $ v X * :.% . = 8 * = . . * . r . * = @ > i | # $ $ 5 o + 6 o & 5 #.#.#.o | O # $ o f i ",
"i 5 v & q # v #.#.X X j X 3 * O y , * t r . , > * >.>.. * @ o @ O O : O > > 7 w O 7 5 H &.&.} } < 6 $ o 7 < s ",
"v + n v O q F F ,.u X z X 8 % @ t >.* * > > * * @ k . @ $ . o e i > . 3 q O @ O @ u 1 5 $ &.} } } 7 O O i f f ",
"1 n i + j F F ,.,.@ @ w 8 h j k % < % % > - . * t y . z . @ 8 k 7 i @ i i X @ i & v 5 ;.1 &.&.} } 1 O @ V 5 5 ",
"3 + & v F F ,.,.,.# + 8 @ - o > 9 y 9 . > * > = @ O O > 1 @ e > & $ # 3 5 & 5 K ;.l <.l & o &.} } } g ] J 5 O ",
"n X.X.F F ,.,.,.,.@ i O , O * = * y - o * O = < + 2 . $ @ * e & g @ N + 3 ;.1.K T <.1.+ j i &.&.&.&.O 3 l # 3 ",
"q 3 n + j O o O $ . @ $ h 3 h $ * * @ > < * = o & 9 # h * w O | V 6 : O 7 n 1.+ V 5 O + v v v v & n # v + q 2."
};
