/* XPM */
static char *result[] = {
/* columns rows colors chars-per-pixel */
"55 55 113 2 ",
"   c #6AA222",
".  c #598E0E",
"X  c #68A01C",
"o  c #5C9314",
"O  c #649B1A",
"+  c #579018",
"@  c #619615",
"#  c #548B0E",
"$  c #579014",
"%  c #70A31F",
"&  c #558D13",
"*  c #699E1B",
"=  c #689A17",
"-  c #78AC27",
";  c #4D840B",
":  c #4B8206",
">  c #639917",
",  c #6BA01D",
"<  c #598F12",
"1  c #6FA621",
"2  c #75AB26",
"3  c #5F9816",
"4  c #69992B",
"5  c #5D951A",
"6  c #4E8411",
"7  c #518613",
"8  c #5B900F",
"9  c #70A722",
"0  c #90BC56",
"q  c #67A01E",
"w  c #6DA41F",
"e  c #50860C",
"r  c #6FA21E",
"t  c #70A21F",
"y  c #75A722",
"u  c #4F880E",
"i  c #61961B",
"p  c #72A521",
"a  c #76AC28",
"s  c #598E1A",
"d  c #568C1A",
"f  c #72AA25",
"g  c gray79",
"h  c #6AA11E",
"j  c #6FA823",
"k  c #6DA21E",
"l  c #6EA527",
"z  c #73AA25",
"x  c #6BA41F",
"c  c #5F981A",
"v  c #888888",
"b  c #67A021",
"n  c #6AA123",
"m  c #68A11D",
"M  c #9E9D9D",
"N  c #679F20",
"B  c #7CB12C",
"V  c gray76",
"C  c #477D05",
"Z  c gray64",
"A  c #4B4747",
"S  c #80B836",
"D  c #699E21",
"F  c #4C5A5F",
"G  c #72AA2A",
"H  c #6BA226",
"J  c #639921",
"K  c #7AB433",
"L  c #6AA229",
"P  c #689F26",
"I  c #5D5D5D",
"U  c #6E6B6B",
"Y  c #3C494D",
"T  c #6EA323",
"R  c #F6F4F4",
"E  c #A0A0A0",
"W  c #838282",
"Q  c #6DA42B",
"!  c #883636",
"~  c gray46",
"^  c gray40",
"/  c #74AB2C",
"(  c #73A826",
")  c #75AB2B",
"_  c gray61",
"`  c #5C5959",
"'  c #7C7C7C",
"]  c #4B4B4B",
"[  c #667980",
"{  c #515151",
"}  c #E2E2E2",
"|  c #2E4453",
" . c gray71",
".. c #6DA521",
"X. c #1E2F3B",
"o. c #713030",
"O. c #A4AEB2",
"+. c #929CA0",
"@. c #333C3F",
"#. c #56666C",
"$. c #414E53",
"%. c gray52",
"&. c #7AAE29",
"*. c #586A71",
"=. c #7BB02B",
"-. c #659D21",
";. c #7BAE29",
":. c #80B32E",
">. c #445358",
",. c #528719",
"<. c #518507",
"1. c #5F9820",
"2. c #7FAF3F",
/* pixels */
"  . X o O + @ # $ $ o % & % # * = - . . X o X ; : @ > , < . O 1 2 3 4 5 < 6 7 @ @ 8 8 O # 9 9 @ o O o 1 O 5 0 ",
"q w e + $ + o @ 8 @ = = 2 o * * > 8 @ 8 r 8 o # 3 8 X $ O + @ # $ $ o t & t . * = - . 8 X + X e : O @ 5 7 & y ",
"o # O X + u q q @ @ @ @ 8 . $ i > X % 8 @ o & # O 1 u + $ + 3 3 8 @ = = 2 o * * @ 8 @ 8 p . o e : i O 5 @ 3 t ",
"u # o 3 + > O # @ @ * @ @ @ 8 & a & X @ O i s # o # O X + u q O @ @ @ @ 8 . + i > X w 8 @ o & u d < f i O o * ",
". X # 3 o 8 # # ; g g 8 o X o h $ o O @ O . @ 8 u # 3 @ + @ O # > @ * @ @ @ 8 & a & X @ > O & 3 < 6 < O @ h o ",
"> w O e 8 8 o . # 8 g g g o & j > 8 O h 8 o o & # q # @ 3 . # # e : . 8 o X o X < 3 O @ > # o $ O i ; h X 2 o ",
"; X k @ % @ . o . # 8 i g g g @ & > > h 8 < 1 & O w O e . . 3 . # 8 % 8 > o & f @ o * h 8 o 5 l ; o # f h h f ",
"o @ @ X O z f x & w O @ & g g g g X @ 3 3 * @ * ; X * @ t @ . o # # 8 > > o & > & @ @ h 8 o w # o 5 f O & & # ",
"# @ X o o . @ @ @ & ; @ & o 1 g g g g @ 3 w j . o @ @ h O 2 f w $ w @ 3 & i $ > x X 3 3 o 8 u + i & & + o & ; ",
"# . * h O $ o @ o c 7 3 7 # o h 3 g v g g # w f # @ X o o # @ @ @ & # @ + 3 1 3 # O q @ o 8 $ q o # X u q 2 j ",
"> % % > i O * o w b $ n < o 3 # O m g g v g g g # 8 * M M M @ @ $ 5 6 o 7 # o * 3 O + 3 h o o N j o o # o $ c ",
"@ w B - 1 $ # & i h &   o # o - X X > > V v v v V V M v M M M o w   + n < $ 3 # O X o q o o x @ h @ O 3 o @ 5 ",
"o @ 2 - o O # # 3 + & & O X o $ % X : w @ g g v v M v v v v M M i x &   o # o 2 X X > > @ @ O & 3 O @ x o i 7 ",
"& > + # h : > i # & C i & @ . @ @ w 8 # + h X g M v v v v v v M M o & & O X o o r X : w 3 X 8 & q ; X > O @ m ",
"N i < h 2 o e e & @ 3 ; @ 1 h @ O X > x * * q Z v v A A v v v v v M C i & @ . @ @ w 8 # 3 h q o u O f @ j @ o ",
"3 S n d D d & O & & # 3 3 < O < o x @ x w > . Z v v M M A A v v v v @ ; > F x @ O m > X O X q # ; ; O z X O 2 ",
"O G H s J i < * O & f O 5 & o @ O w h O O > > Z v v v v M M A A A v g g 3 F O . @ h @ w w = 8 8 3 @ O @ @ o h ",
"i K L 5 5 5 > # j + @ O 3 3 P o o # . 8 @ O o I v v U v v v v v v v v v F Y o @ O h h O O @ > o 3 O @ @ w * # ",
"& K i 5 5 h o O o i @ 3 3 @ @ O o k o o T * o R I I I v U E W v g v v F F Y Q 3 o # . . @ O o O O O * * h @ . ",
"u a 9 @ 2 a @ 2 o f O 3 @ o @ f e O @ # O @ e R ! ! ! I I ~ U ! & g v F F F ^ ^ ^ ^ o o w * o @ . $ @ O @ f f ",
"3 / ( ) o O 8 o $ f + 8 + X # X o * o @ X : R R _ _ ! ! ! I I ! ` ^ ' F Y Y ] ] ] ^ @ # O > # . t k % @ # h X ",
"# / i @ + 2 . O O f > 3 # # q X % * f @ * > _ _ _ ^ [ ! ! ! ! ! ` ^ ^ ' h = ^ ] ] F o + o f - > - * * @ @ @ % ",
"1 G T i f @ 2 f 8 3 q 8 3 u # & . = o > > _ _ _ ^ ^ [ [ [ ! ! [ ` ` ^ ' , ^ ^ ] Y F F F o X X % B % = > @ k 8 ",
"c 5 1 O c i & O O O $ # ; u 3 q w t S   _ _ _ ^ F F [ [ [ [ [ [ d ` ^ ^ ' ^ ] ] . Y Y Y & O X O > O * 7 8 @ O ",
"h q f X o w # 9 1 3 3 @ $ @ q 3 , _ _ { _ ^ ^ } | F F [ [ F [ [ N d ` ] ] ^ ] * O X h @ @ h & @ w @ d 7 @ X h ",
"3 q 3 * z . 8 $ 1 i u N O i & & O _ _ { ^ } }  .| | F F F F F F s d ` ^ ^ ] + f O > O o 8 8 c & 3 @ d d @ ..$ ",
"& q . h o O + @ # 5 N 7 O i + 8 _ { { { $ + } } | | ! F F F F t 1 f u ` ` 3 < f + $ o q # x 3 q 3 $ 3 o 3 h < ",
". q w ; + $ + o @ $ < h O 6 + _ _ _ ^ h & # q h | | ! ! ! | @ , 3 X o X # * O 1 X @ # # q q 3 u m 8 & O i o * ",
"# o # > X + u q h 3 @ @ o _ ^ _ _ ^ ^ 3 + > O # | X.! ! o.X.O.O.O X o @ f f . 3 X 8 3 u # ; u j q @ > O h q h ",
"8 u # o @ + > O # > @ _ _ ^ ^ ^ ^ ^ # 3 o O.+.+.X.o.o.o.X.O.O.O.O.O.: @ d O O * & # ; u 3 X q f h o w # 2 # # ",
"& # X . 3 o 8 # # e ^ _ ^ ^ ^ ^ O w O e O.O.O.+.+.+.o.o.+.@.+.+.+.O.O.O.O.1 j 3 o @ o 3 q 3 X 3 X z 8 8 & h X ",
"$ > w O ; 8 8 o . _ ^ _ ^ _ _ = ; X k O.O.O.+.+.@.[ #.[ $.$.@.@.@.+.+.+.O.O...i u N O c & & X . * o O + 3 # & ",
"O : X h @ % @ 8 %._ ^ ^ @ 1 1 _ o @ O.O.O.+.+.@.#.[ #.[ [ F $.$.$.@.@.@.+.+.O.o x & * c + . q w # + 8 + $ 3 8 ",
"8 o @ @ , O 2 2 w ^ _ ^ 3 # 1 f # > O.O.+.+.@.#.[ #.#.[ [ F F F F F $.$.@.@.+.O.# + i e + # + # O m + u q q 3 ",
"f # > * o o # @ @ 3 & u 3 # ; @ # O.O.+.+.@.#.#.[ #.[ $.$.$.F F F F F F F $.@.+.O.8 @ $ @ 8 # # o 3 + @ O # @ ",
"@ # 8 = , O $ @ @ o 3 6 3 3 h * O.O.O.O.+.@.#.[ #.#.$ d $.$.$.$.F F F F F F $.+.O.3 @ @ o & # X # @ o 8 . # u ",
"* @ w % @ i O X o w b + * 5 > & O.O.O.+.@.#.[ #.#.h c o c o $.$.$.$.F F F F F F @.@ @ O X < O w O e . . o . # ",
"$ @ w B &.j # # & i h & n & 5 O.O.O.+.+.#.[ #.#.o o 3 7 O n @ $.$.$.$.$.$.F F @.F F : 8 o > ; X k @ % @ . o # ",
"i # @ 2 &.+ O . # o o & i i 5 O.O.+.+.@.[ #.#.i # + u c O i $ j & > $.$.$.@.@.F F F F % @ 8 o @ @ X O 2 f w & ",
"N Q @ o # h : > i # & C 5 1 O.O.+.+.@.[ #.#.# # o & 3 O $ , O @ * o 8 , o % $.@.F F F 8 @ w . > * o o # @ @ 3 ",
"O + o $ X z $ # # & 3 3 7 q O.+.+.@.#.[ #.* = X # ; ; O y X O 2 X o X @ h O 2 $.@.@.@.@.3 o # . X , O $ @ @ o ",
"@ & 9 > f O X o & @ h h @ @ $ O #.#.@.#.w w > 8 8 @ @ O @ @ o h X f 8 X o o # @ $.$.F F F O > % % @ i O X o w ",
"f . = z > O O X @ h O @ j 3 # @.#.#.@.* O O @ O o 3 O @ @ , X # # # X = , O $ @ $.$.$.F F & @ w B - w $ . & i ",
"@ 7 o 9 O e o o + i O @ @ h [ *.@.@.#.. 8 @ O o q O O = * , o 8 # f : % > i O * $.$.$.F F F # @ 2 &.o O # # o ",
"a @ * < 6 $ o 7 d d > @ [ [ [ *.*.*.h o 3 w * $ 3 . $ @ O @ 2 f > e : B 2 1 $ # & $.$.$.F F Q @ o . X : O i # ",
"f f o O 7 @ O i d + [ [ [ [ #.#.z e * @ # O @ # . w * 9 @ & h X O + O 2 =.o O # & 3 $.$.F F F o $ x f o # ; + ",
"o o 9 O l O 3 -.5 5 [ [ [ #.#.t * o * $ @ h : @ t = % * @ @ # @ O O 8 o # h : i i @ 5 $.$.F F j O % O X $ & @ ",
"o O o f O f / a 5 [ [ #.#.#.% z k y * f @ O @ p t . @ - O O 3 O o > # o 1 h + d 6 5 i i $.$.F > f O O @ k > * ",
"i   h u c O 3 ..@.@.@.#.c X * ;.% . = 8 * = . . * . r . * = @ > i T # $ $ 5 o + 6 o & 5 5 @.F F T O # $ o d i ",
"i 5 c & q # c [ [ #.#.j X 3 * O y , * t r . , > * :.:.. * @ o @ O O : O > > 7 w O 7 5 D l a @.@.< 6 $ o 7 < s ",
"c + b c O q [ [ [ #.X z X 8 % @ t :.* * > > * * @ k . @ $ . o e i > . 3 q O @ O @ u 1 5 $ f >.F F 7 O O i d d ",
"1 b i + j 1 [ [ #.#.@ w 8 h j k % < % % > - . * t y . z . @ 8 k 7 i @ i i X @ i & c 5 -.1 o >.>.F F O @ N 5 5 ",
"3 + & c 3 [ [ [ #.# + 8 @ - o > 9 y 9 . > * > = @ O O > 1 @ e > & $ # 3 5 & 5 H -.l ,.l & o >.>.>.F F / G 5 O ",
"b ....3 3 #.#.#.#.@ i O , O * = * y - o * O = < + 2 . $ @ * e & f @ <.+ 3 -.1.H L ,.1.+ j i >.>.>.>.F F l # 3 ",
"q 3 b + j O o O $ . @ $ h 3 h $ * * @ > < * = o & 9 # h * w O T N 6 : O 7 b 1.+ N 5 O + c c c c & b # c + q 2."
};
