/* XPM */
static char *_5e820c0780e4609f0e96090533a72ca4L3pZ04K5tcBv3CM[] = {
/* columns rows colors chars-per-pixel */
"55 55 162 2 ",
"   c #150C1C",
".  c #1B0F1F",
"X  c #1C1120",
"o  c #1F1824",
"O  c #231323",
"+  c #281626",
"@  c #221A27",
"#  c #251D28",
"$  c #2F1D2B",
"%  c #24202F",
"&  c #2B212C",
"*  c #33222A",
"=  c #2D2732",
"-  c #2D2834",
";  c #2E2C3B",
":  c #3D2231",
">  c #332D36",
",  c #382F37",
"<  c #342F38",
"1  c #37313A",
"2  c #3C363F",
"3  c #452535",
"4  c #492F3C",
"5  c #46313B",
"6  c #4B323D",
"7  c #433D3E",
"8  c #6E643E",
"9  c #3A3743",
"0  c #3E3841",
"q  c #4D3544",
"w  c #423D42",
"e  c #4C3A45",
"r  c #4B3D4C",
"t  c #543642",
"y  c #533F44",
"u  c #5C3B45",
"i  c #464146",
"p  c #4D4146",
"a  c #4C454A",
"s  c #4E4A4E",
"d  c #534146",
"f  c #52464A",
"g  c #594749",
"h  c #524D4D",
"j  c #5C4C4B",
"k  c #55504D",
"l  c #444654",
"z  c #464957",
"x  c #494B57",
"c  c #4A4D5B",
"v  c #504250",
"b  c #584756",
"n  c #534F50",
"m  c #594857",
"M  c #5A4A59",
"N  c #4F525B",
"B  c #555152",
"V  c #5B5553",
"C  c #5D5954",
"Z  c #555358",
"A  c #585659",
"S  c #575C5F",
"D  c #5C5B5B",
"F  c #624D4F",
"G  c #60514F",
"H  c #655255",
"J  c #625D56",
"K  c #625F59",
"L  c #6D595A",
"P  c #745357",
"I  c #705A5A",
"U  c #766D40",
"Y  c #676257",
"T  c #686357",
"R  c #65615A",
"E  c #69655B",
"W  c #6E6A5D",
"Q  c #716D5F",
"!  c #645662",
"~  c #5F6167",
"^  c #5E6571",
"/  c #626163",
"(  c #6E6C64",
")  c #6E6E69",
"_  c #726F61",
"`  c #757162",
"'  c #7C7566",
"]  c #76756A",
"[  c #79776B",
"{  c #74796B",
"}  c #79786D",
"|  c #666971",
" . c #696E76",
".. c #6B707A",
"X. c #777872",
"o. c #7A7B74",
"O. c #7B7E79",
"+. c #827A6B",
"@. c #918475",
"#. c #6E7A86",
"$. c #707781",
"%. c #727B84",
"&. c #747F8A",
"*. c #7C8383",
"=. c #76828E",
"-. c #7C858B",
";. c #7F888A",
":. c #768390",
">. c #7B8791",
",. c #7D8A94",
"<. c #78ADB7",
"1. c #6FB8BE",
"2. c #75B4BD",
"3. c #80898C",
"4. c #898C8B",
"5. c #828D93",
"6. c #818D92",
"7. c #818D95",
"8. c #828E95",
"9. c #808D96",
"0. c #818E97",
"q. c #828F97",
"w. c #828E95",
"e. c #839097",
"r. c #839097",
"t. c #839098",
"y. c #839099",
"u. c #83919A",
"i. c #83929B",
"p. c #84929B",
"a. c #84939D",
"s. c #84939E",
"d. c #85949F",
"f. c #83919A",
"g. c #8D949A",
"h. c #959494",
"j. c #A99283",
"k. c #B39388",
"l. c #AA9A92",
"z. c #AA9A92",
"x. c #A49B9A",
"c. c #A49B9A",
"v. c #BFA192",
"b. c #BFA192",
"n. c #B0A19D",
"m. c #B0A19D",
"M. c #BBA49B",
"N. c #BBA49B",
"B. c #8595A1",
"V. c #8595A1",
"C. c #829AA6",
"Z. c #829AA6",
"A. c #AEB1A9",
"S. c #AEB1A9",
"D. c #C2A293",
"F. c #C2A69B",
"G. c #C5A69A",
"H. c #C3A69B",
"J. c #C6A99C",
"K. c #C6A99C",
"L. c #C0ADA1",
"P. c #C0ADA1",
/* pixels */
"Q Q ] 3.] &.Z D _ V W w @ X O M ;.` [ ] _ _ Y s > 8 K.1.a.t.i.w.` [ ;.{ y.;._ W ] %.W K e P S.<.i.t.9.8.p.9.| ",
"s B ] E 0 < ,.,.-.` ] W E 0 + M ;.O.d.;.R R R s < I t.` ' ] ` ] _ W n B _ R a a : O 6 e : P m.V.*.] ] _ ` R 6 ",
"A X.,.p & ( B x B [ %.k ` h O M ;.o.r.*.Q W J s > L r.' G.t.] -.k ` W k s a 4 s a 5 C k O M B.i.;.o. .C ` W 7 ",
"p.9.>.W q t.] ` D Q f y R 2 O M ;.` ` ` R s s s > N ] ` t.w.Q s 6 ) B ( s s n s k B C 1 + M ;.o.*.E p j R s > ",
"Q B B Y % :.:.:.%.T T C i 1 O M ;.` ` ` T k k s = c r.Q ` ] Q Q ] ,.] #.A S _ V W i o X @ m ;.` ] ] _ Q J s ; ",
"' ] ` Y   . . . . . . . . . + m ;.` ` ` ` ` ` p . c ` s ] >.s B ] E 2 1 ,.,.-.` ] W E 7 + M ;.O.d.;.Y R R s > ",
"G.t.W Y X 4 t e q q q q q 6 : M ;._ ` ` ` ` ` V $ c Q B ` Q A } ,.a $ _ n n k } #.k ` h O M ;.o.r.*._ W C s > ",
"t.-.B R X u N.2.s.p.r.r.9.^ O m ;.W Q ` ` [ [ R > x k ` ` ] p.9.>.E q p.] ) D W f y Y 2 O M ;.` ` ` Y s s s > ",
"[ Z n T X u N.d.5.` } ' W 2 O M %.s V ` o.>.>.| > 7 ` ] ` ` Q k B Y % =.:.:.%.T E V a 1 @ m ;.` ` ` T k k s = ",
"D.=.n T X e <.8.3.} V.3._ k O M %.B J ` E B B p $ c ` r.Q ` ' ] ` E   . . . . . . . . . + M ;.` ` ` ` ` _ p   ",
"Q n B E X r 2.3.` [ 0.3.E 0 O m ;.] ] +.{ ` ` R > x ` _ k ' H.p.Q Y X 3 t r q q q q q 4 : b ;.` ` ` ` ` _ H $ ",
"] ` ` T X t 9.W _ ` ` _ E 2 O b 3.O.c.z.*.W ` R > w ` Q Q ] t.-.n Y X u N.2.B.p.8.9.9.^ O M ;.W Q ` ` ] ] E > ",
"g.` Q J X q >.s n ` ] W E 0 O b 3.@.j.` Y V ` R > z ` s s ` ' B k R X u M.B.9.` ] ' W 0 O m %.s C ` o.,.>.| > ",
"D.Q s i . q -.h V [ %.j W 0 O b 3.o.*.W j g _ H > 7 ` k B ' b.>.B Y X e Z.d.3.} V.5.Q k O b &.h C ` E k n a $ ",
"=.J i w . 4 Y Y K H w 5 V 1 O b 3.Q E f e R E n > c ] Q ` ` _ n B Y X r 2.3.` [ 9.;.E 0 O b ;.) } +.' ` _ K < ",
". . . . O : X . X X . X X X + b 3.` ` ` ` _ W C < c B.s ` W ] ` ` E X t 9.W Q ` ` ` W 0 @ m ;.@.c.z.*.W ` R < ",
"q q q q 6 q q q 4 q q t t 6 e ! 4.` ` ` _ J s s < x 9.h _ V g.` Q R X q >.s B ` ] Q E 0 O b ;.@.j.` R V ` Y < ",
"p.r.r.3.] r.t.3._ } ,.>.;.X.t.h.@.+.Q Q K s s s < c ] B ] +.b._ s i . q -.k V } %.h E 0 O m ;.X.*.E j g _ C < ",
"Q W W Q ` ` ` ] ` _ s Z _ Q _ _ [ ( f p w i a s < F =.E =.k.=.J i 0 . 4 Y Y Y C w 5 C 1 O b 4.` E f e R E k < ",
"B h B h ` ` [ 9.] -.B C W C E ~ B.%.s 2 O & e n < + . . X . . . . . O : X X . . . . X . + b 3.` ` ` ` ` W C < ",
"] ` Q k ` ` ' r.} ] ` ] ( ` W / >...a e 5 x C R , * t t q q q q q q 6 q q q 4 6 t t q 6 t ! h.` ` ` _ J s s < ",
">.` _ n ` ` ] r.V.9.} $.j _ Q R n p q p e k R R , 8 D.D.,.,.t.t.r.w.' 9.t.;.` } ,.,.3.} y.h.@.( W W J s s s < ",
"V ] ] B ` ` ` ] 9.;.E h y Q J h E s x B R Q ` R , H Q _ s h Q W W Q ` ` ] ] ` ` x Z Q Q _ _ } ( s a w i a s < ",
"} 9.w.W ` ` _ W ` Q V Q E Z w , ( n C }  .V Q J , z B _ n B n n k h ` ` ] 9.] -.k C Q C E ~ V.%.s 2 o & e k < ",
">.W W s ` _ W V ` _ _ R B W V f 6.) R E f g C s , l ] Q _ ] ] ` Q n ` ` ] r.[ ] ] [ Q ` W / >. .a e 6 s C Y > ",
"i i i a R J Y Y J J C w w i , < #.#. .C J k i 7 = 9 9.a ` t.6._ Q n ` ` ] p.B.r.[ ..k ` _ R B e e e e B R R 1 ",
"@ @ @ @ o o @ @ o o X . o o . # > - = % & & & % o 9 n 6 [ _ B [ ] B ` ` ` ] 9.*.E h d W J h E x s Z D Q ` R > ",
"] -.n ` W B h i 5 s p 6 V h O M a.i.;.X. .C _ W 7 N [ [ y._ X.t.;.W ] ` ] _ ` Q C ` E B e 2 { S R O.../ ] / 0 ",
"W h 6 ` B ( s s k x h k J 1 O M ;.O.*.E p j Y s < 8 K.2.s.p.t.w.` ] -.] i.;.Q _ ] %.W J q P S.<.s.r.r.r.r.,.| ",
"_ Q [ w.] #.Z D ( C W i O . O Z ;.` ] ] _ W R s < L i.` ' ] Q ] _ W n B _ E a p : @ 6 e 3 P m.a.3.` ] Q ` Y e ",
"s B ] E 0 1 ,.,.;.` ] _ E 7 O M ;.O.d.;.E R R s , I 9.' G.p.' =.h ` E n s a 5 s i 6 C k O M d.s.*.o. .C Q W 7 ",
"A } ,.a % ( B B B o...k _ k O M ;.o.r.*._ Q C s - N ] ] t.9.Q h q _ V ( s s n s B B C 1 @ M ;.o.*.E p j R s > ",
"t.,.>.E q y.] ( D W f y R 2 + M ;.` ` ` Y s s s < N ,.` ` ] W _ ] 3.] #.Z S _ V W w o . O M ;.] ] ` ` W R s - ",
"` B V Y % :.:.:.%.R Y C i 1 @ m ;.` ` ` Y h k s = N ` s ] ;.s B ] E 0 1 ,.,.-.] ] _ W 7 O M ;.o.d.;.E R R s > ",
"[ ] ` Y   . . X X . . . . . + b ;.` ` ` ` ` ` p   c W B ` _ A o.,.i & ( n n B [ $.n _ h + M ;.o.r.*._ W C s < ",
"G.t.Q Y X 3 t e q q q q q 4 3 b ;.` ` ` ` ` ` j $ c k ` ` ] t.,.,.E q r.} _ D W f y E 2 O M ;.` ` ` Y s s s > ",
"p.=.n Y X u P.2.d.p.r.p.,.^ O m ;.W Q ` ` } } E > w ` [ ` ` W B V Y % =.:.:.%.T E C i , O M ;.` ` ` Y k k s = ",
"' Z B Y X u N.B.w.` ] ] W w O M %.s C ` X.>.,.| > c ` ,._ ` ' ] ` Y   X X X . . . . . . + m ;.` ` ` ` ` ` p   ",
"D.-.n T X q Z.B.3.} B.3._ h O b *.x C ` / B B e $ x ` ` k ' F.t._ Y X 3 t e q q q q q 4 : m ;.` ` _ ` ` ` j $ ",
"Q h B E . r 2.;.` } r.;.E 0 O b ;.' } +.] ` ` R > 7 ` W _ ] r.-.k Y X u N.1.B.p.y.y.9.^ @ b ;.W _ _ ] [ } E > ",
"] ` ` T . e 9.W Q ` _ ` E 2 O b 3.+.c.z.*.W ` R < x _ s h ` +.Z h Y X u N.V.5.` ] ] W 7 O b %.s C ` o.>.,.| > ",
"g.` Q J X t >.s B ` ] _ W 2 O b 3.@.j.] Y V ` R < 7 _ n B ` b.=.B E X q Z.d.3.X.B.3.` h O b &.n H ` E B B p $ ",
"D.Q x p . q -.n V ] %.h E 0 O b 3.o.*.E j g Q C < x ] Q ` ` _ n B E X r 2.3.` ] t.3.E 0 O m 3.` [ +.' ` ` K ; ",
"=.J w w . 4 Y Y Y C 7 4 C 1 O b 3.` T f y K E n , x s.h ` Q ] _ ` Y X t 9.Q Q Q ` ` E 2 O M w.+.c.z.*.Q ` R < ",
". . . . O : X . X . X X . X + m 4.` ` ` ` _ W J , c y.x ` Z h._ W R X q >.s B ] ] Q E 0 O b ;.@.j.` J V ` R ; ",
"q q q q 6 q q q 6 q q q q 6 t ! 4.` ` ` _ J s s < x ] h [ +.D._ s i X q -.h C } $.n W 2 O b ;.o.*.W j g _ C > ",
"t.r.8.3.' 9.9.3.` ] >.,.;.X.t.h.@.+.W W K s s s < F =.W =.k.&.J w 7 . 5 T Y T C w 4 C 1 O b ;.` T f p D E k 1 ",
"W Q Q Q ` ` ` ] ] _ s V Q W ` _ [ ( x a w w a f < + . . . . . . X . X : X . . . . . X . + b 3.` ` ` ` ` W C 1 ",
"B n B n ` ` ] 9.] -.n H W C E ~ V.%.s 2 X & e n < * t 6 t t q q t q 6 t q q 6 6 t e q q t ! 4.` ` ` _ J s s < ",
"] ` Q n ` ` [ r.] ] ` ] W ` W / >...s e 6 s C R < 8 D.D.,.9.y.y.y.6.] 9.9.3.` [ ,.>.;.X.9.h.j.( W W K s s s < ",
">.` Q n ` ` ] r.V.w.] $.B ` ` Y B e w e e B R R < H Q ` h n W _ W _ _ ` ] ] ` _ s B ` Q ` _ } ( s a i p a s > ",
"V ] ] B ` ` ` ] 9.;.W h d W J h E s h Z R W ` R < z B ` n n n n n n ` ` ] ,.} -.k C W C E ~ V.%.s 1 X & e n < ",
"} t.3.Q ` ` ` W ` Q V Q E n w , ( B V X. .V _ J < z ] Q ` [ ] ` Q h ` ` ] r.} ] ] ] Q ` W ~ >...a e 5 s C R > ",
">.W W k ` ` Q V ` ` Q E Z Q V a ,.) R E f g J s < z >.a ` r.>.` Q h ` ` ] r.B.w.} ..h ` ( R k e 6 p e B R R 1 ",
"i i 7 i J J J Y Y J V w w w 1 ; #.#. .J J h w w = z B 6 } Q B } ] V ` ` ` ] r.;.T h d W R h E s n B R ( ` R < "
};
