/* XPM */
static char *result[] = {
/* columns rows colors chars-per-pixel */
"55 55 93 2 ",
"   c #6AA222",
".  c #598E0E",
"X  c #68A01C",
"o  c #5C9314",
"O  c #649B1A",
"+  c #579018",
"@  c #619615",
"#  c #548B0E",
"$  c #579014",
"%  c #70A31F",
"&  c #558D13",
"*  c #699E1B",
"=  c #689A17",
"-  c #78AC27",
";  c #4D840B",
":  c #4B8206",
">  c #639917",
",  c #6BA01D",
"<  c #598F12",
"1  c #6FA621",
"2  c #75AB26",
"3  c #5F9816",
"4  c #69992B",
"5  c #5D951A",
"6  c #4E8411",
"7  c #518613",
"8  c #5B900F",
"9  c #70A722",
"0  c #90BC56",
"q  c #67A01E",
"w  c #6DA41F",
"e  c #50860C",
"r  c #6FA21E",
"t  c #70A21F",
"y  c #75A722",
"u  c #4F880E",
"i  c #61961B",
"p  c #72A521",
"a  c #76AC28",
"s  c #598E1A",
"d  c #568C1A",
"f  c #72AA25",
"g  c #6AA11E",
"h  c #6FA823",
"j  c #6DA21E",
"k  c #6EA527",
"l  c #73AA25",
"z  c #6BA41F",
"x  c #5F981A",
"c  c #67A021",
"v  c #6AA123",
"b  c #68A11D",
"n  c #518507",
"m  c #8A4836",
"M  c white",
"N  c #679F20",
"B  c #7CB12C",
"V  c #C7CFDD",
"C  c #477D05",
"Z  c #571C27",
"A  c #891E2B",
"S  c #80B836",
"D  c #699E21",
"F  c #72AA2A",
"G  c #6BA226",
"H  c #639921",
"J  c black",
"K  c #7AB433",
"L  c #6AA229",
"P  c #689F26",
"I  c #131313",
"U  c #74AB2C",
"Y  c #73A826",
"T  c #75AB2B",
"R  c #F5555D",
"E  c #72A726",
"W  c #6EA323",
"Q  c #6DA521",
"!  c #1B1B1B",
"~  c #F6CA9F",
"^  c #7AAE29",
"/  c #6DA42B",
"(  c #272727",
")  c gray52",
"_  c #B4B4B4",
"`  c #7BB02B",
"'  c #659D21",
"]  c #497D0C",
"[  c #7BAE29",
"{  c #80B32E",
"}  c #528719",
"|  c #5F9820",
" . c #7FAF3F",
/* pixels */
"  . X o O + @ # $ $ o % & % # * = - . . X o X ; : @ > , < . O 1 2 3 4 5 < 6 7 @ @ 8 8 O # 9 9 @ o O o 1 O 5 0 ",
"q w e + $ + o @ 8 @ = = 2 o * * > 8 @ 8 r 8 o # 3 8 X $ O + @ # $ $ o t & t . * = - . 8 X + X e : O @ 5 7 & y ",
"o # O X + u q q @ @ @ @ 8 . $ i > X % 8 @ o & # O 1 u + $ + 3 3 8 @ = = 2 o * * @ 8 @ 8 p . o e : i O 5 @ 3 t ",
"u # o 3 + > O # @ @ * @ @ @ 8 & a & X @ O i s # o # O X + u q O @ @ @ @ 8 . + i > X w 8 @ o & u d < f i O o * ",
". X # 3 o 8 # # ; : . 8 o X o g $ o O @ O . @ 8 u # 3 @ + @ O # > @ * @ @ @ 8 & a & X @ > O & 3 < 6 < O @ g o ",
"> w O e 8 8 o . # 8 w 8 > o & h > 8 O g 8 o o & # q # @ 3 . # # e : . 8 o X o X < 3 O @ > # o $ O i ; g X 2 o ",
"; X j @ % @ . o . # 8 i > o & @ & > > g 8 < 1 & O w O e . . 3 . # 8 % 8 > o & f @ o * g 8 o 5 k ; o # f g g f ",
"o @ @ X O l f z & w O @ & O o i X X @ 3 3 * @ * ; X * @ t @ . o # # 8 > > o & > & @ @ g 8 o w # o 5 f O & & # ",
"# @ X o o . @ @ @ & ; @ & o 1 3 # O g @ 3 w h . o @ @ g O 2 f w $ w @ 3 & i $ > z X 3 3 o 8 u + i & & + o & ; ",
"# . * g O $ o @ o x 7 3 7 # o g 3 O + 3 O # w f # @ X o o # @ @ @ & # @ + 3 1 3 # O q @ o 8 $ q o # X u q 2 h ",
"> % % > i O * o w c $ v < o 3 # O b o g o # n @ # 8 * w O $ @ @ $ 5 6 o 7 m M * 3 O + 3 g o o N h o o # o $ x ",
"@ w B - 1 $ # & i g &   o # o - X X > > > O X X @ % % @ @ O X o w   + v < m M M O X o q o o z @ g @ O 3 o @ 5 ",
"o @ 2 - o O # # 3 + & & O X o $ % X : w @ X o & @ w B - 1 $ # & i z &   m m V M M X > > @ @ O & 3 O @ z o i 7 ",
"& > + # g : > i # & C i & @ . @ @ w 8 # + g X i # Z Z Z Z Z A A A o & & m V V V M X : w 3 X 8 & q ; X > O @ b ",
"N i < g 2 o e e & @ 3 ; @ 1 g @ O X > z * * q Z Z Z Z A A A A A A A C m m V V V M w 8 # 3 g q o u O f @ h @ o ",
"3 S v d D d & O & & # 3 3 < O < o z @ z w > Z Z Z A A A A A A A A A A m V V V V M M > X O X q # ; ; O l X O 2 ",
"O F G s H i < * O & f O 5 & o @ O w g O O Z Z Z A A A A A J J J J A m m V V V V V M @ w w = 8 8 3 @ O @ @ o g ",
"i K L 5 5 5 > # h + @ O 3 3 P o o # . 8 Z Z Z A A A A J J J J J J J m A V V V V V M g O O @ > o 3 O @ @ w * # ",
"& K i 5 5 g o O o i @ 3 3 @ @ O o j o Z Z Z Z A A A J J J J J J J m m A g V V V V M M . @ O o O O O * * g @ . ",
"u a 9 @ 2 a @ 2 o f O 3 @ o @ f e O @ Z Z Z A A A J J J I I I I I m J A O @ V V V V M o w * o @ . $ @ O @ f f ",
"3 U Y T o O 8 o $ f + 8 + X # X o * Z Z Z Z A A A J J I I R R I m m R A t < E V V V M # O > # . t j % @ # g X ",
"# U i @ + 2 . O O f > 3 # # q X % Z Z Z Z Z A A A J J I I R R I m R R A g = t V V V M + o f - > - * * @ @ @ % ",
"1 F W i f @ 2 f 8 3 q 8 3 u # & Z Z Z Z Z Z A A A J I I I I I m m I I A , l y , V V M M o X X % B % = > @ j 8 ",
"x 5 1 O x i & O O O $ # ; u 3 q Z Z Z Z Z Z Z A A A I I I I I m I I I A * > - * V V V M & O X O > O * 7 8 @ O ",
"g q f X o w # 9 1 3 3 @ $ @ q 3 , Z Z Z Z Z Z A A A I I I I m m I I A A > O o * V V V M @ g & @ w @ d 7 @ X g ",
"3 q 3 * l . 8 $ 1 i u N O i & & O o X Z Z Z Z Z A A A I I I m I I Z A i @ 2 + f O V V M 8 8 x & 3 @ d d @ Q $ ",
"& q . g o O + @ # 5 N 7 O i + 8 g w ; + $ Z Z Z Z A A A A m m A Z Z u Q 8 3 < f + V V M # z 3 q 3 $ 3 o 3 g < ",
". q w ; + $ + o @ $ < g O 6 + & o # O g & # q Z Z Z A Z Z m Z Z Z X o X # * O 1 X @ V M q q 3 u b 8 & O i o * ",
"# o # > X + u q g 3 @ @ o # @ 8 u # o 3 + > O Z Z A A A m m Z o O X o @ f f . 3 X 8 V M # ; u h q @ > O g q g ",
"8 u # o @ + > O # > @ O   > o & # X # 3 o 8 # Z A A A A m A Z Z X o : @ d O O * & # V M 3 X q f g o w # 2 # # ",
"& # X . 3 o 8 # # e : . @ & h & O w O e . . Z Z Z A A m m Z A Z ; $ i k & 1 h 3 o @ V M q 3 X 3 X l 8 8 & g X ",
"$ > w O ; 8 8 o . # 8 t > X @ = ; X j @ Z Z Z Z Z Z Z m ! Z A A A 5 i + <   Q i u N O M & & X . * o O + 3 # & ",
"O : X g @ % @ 8 o # # 8 @ 1 1 . o @ @ Z Z Z Z A A A ~ ~ ! Z A A A O 3 * % 8 o o z & * M + . q w # + 8 + $ 3 8 ",
"8 o @ @ , O 2 2 w & 1 @ 3 # 1 f # > Z Z Z Z A A A A ~ ~ ! A A A A q . g o O + @ # + i M + # + # O b + u q q 3 ",
"f # > * o o # @ @ 3 & u 3 # ; @ Z Z Z Z Z A A A A m ~ ~ ! A A A A g w u + $ + o 3 8 @ M @ 8 # # o 3 + @ O # @ ",
"@ # 8 = , O $ @ @ o 3 6 3 3 g Z Z Z Z Z A A A A A m ! ! ! A A A A Z # O X + u q q 3 @ @ o & # X # @ o 8 . # u ",
"* @ w % @ i O X o w c + * 5 > Z Z Z Z A A A A A m m ! ! ! A A A Z Z # o @ + @ O # @ @ O X < O w O e . . o . # ",
"$ @ w B ^ h # # & i g & v & 5 i Z Z Z A A A A ! m ! ! ! ! A A A Z Z X # @ o 8 # # # : 8 o > ; X j @ % @ . o # ",
"i # @ 2 ^ + O . # o o & i i 5 N / Z Z Z A A ( m m ! ! ! A A A Z Z Z w O # 8 . o . # 8 % @ 8 o @ @ X O 2 f w & ",
"N / @ o # g : > i # & C 5 1 s i + o $ Z Z ( ( m ! ! ! ! A Z Z Z Z o 8 , o % @ . o # # 8 @ w . > * o o # @ @ 3 ",
"O + o $ X l $ # # & 3 3 7 q ; i & , O , g ) ) m ! ! ! ! Z Z Z Z X o X @ g O 2 f w & g @ 3 o # . X , O $ @ @ o ",
"@ & 9 > f O X o & @ g g @ @ $ O . @ g > w _ _ _ 8 @ @ O _ _ _ g X f 8 X o o # @ @ 3 & # O O > % % @ i O X o w ",
"f . = l > O O X @ g O @ h 3 # o @ O , * O _ _ O o 3 O @ _ _ X # # # X = , O $ @ @ $ 5 7 @ & @ w B - w $ . & i ",
"@ 7 o 9 O e o o + i O @ @ g & / o 3 # . 8 @ O o q O O = * , o 8 # f : % > i O * o w g < i i # @ 2 ^ o O # # o ",
"a @ * < 6 $ o 7 d d > @ @ O > > O o g o 3 w * $ 3 . $ @ O @ 2 f > e : B 2 1 $ # & i g 5 x c / @ o . X : O i # ",
"f f o O 7 @ O i d + # i & % $ f l e * @ # O @ # . w * 9 @ & g X O + O 2 ` o O # & 3 + 1 d i + o $ z f o # ; + ",
"o o 9 O k O 3 ' 5 5 N @ < t = t * o * $ @ g : @ t = % * @ @ # @ O O 8 o # g : i i @ 5 N ] 3 & h O % O X $ & @ ",
"o O o f O f U a 5 O e k 2 % % l j y * f @ O @ p t . @ - O O 3 O o > # o 1 g + d 6 5 i i : 2 . > f O O @ j > * ",
"i   g u x O 3 Q # 3 x $ x X * [ % . = 8 * = . . * . r . * = @ > i W # $ $ 5 o + 6 o & 5 5 @ 7 o W O # $ o d i ",
"i 5 x & q # x + q X X h X 3 * O y , * t r . , > * { { . * @ o @ O O : O > > 7 w O 7 5 D k a @ * < 6 $ o 7 < s ",
"x + c x O q 8 h 8 u X l X 8 % @ t { * * > > * * @ j . @ $ . o e i > . 3 q O @ O @ u 1 5 $ f f o O 7 O O i d d ",
"1 c i + h 1 q h x @ @ w 8 g h j % < % % > - . * t y . l . @ 8 j 7 i @ i i X @ i & x 5 ' 1 o o 9 @ 1 O @ N 5 5 ",
"3 + & x 3 O & i * # + 8 @ - o > 9 y 9 . > * > = @ O O > 1 @ e > & $ # 3 5 & 5 G ' k } k & o O $ f O f U F 5 O ",
"c Q Q 3 3 + O # o @ i O , O * = * y - o * O = < + 2 . $ @ * e & f @ n + 3 ' | G L } | + h i   X u x O 3 k # 3 ",
"q 3 c + h O o O $ . @ $ g 3 g $ * * @ > < * = o & 9 # g * w O W N 6 : O 7 c | + N 5 O + x x x x & c # x + q  ."
};
